<?xml version="1.0" encoding="UTF-8" standalone="no"?>
<svg
   xmlns:dc="http://purl.org/dc/elements/1.1/"
   xmlns:cc="http://creativecommons.org/ns#"
   xmlns:rdf="http://www.w3.org/1999/02/22-rdf-syntax-ns#"
   xmlns:svg="http://www.w3.org/2000/svg"
   xmlns="http://www.w3.org/2000/svg"
   xmlns:sodipodi="http://sodipodi.sourceforge.net/DTD/sodipodi-0.dtd"
   xmlns:inkscape="http://www.inkscape.org/namespaces/inkscape"
   width="60.068211mm"
   height="38.298717mm"
   viewBox="0 0 60.068211 38.298717"
   version="1.1"
   id="svg483"
   inkscape:version="1.0.1 (3bc2e813f5, 2020-09-07)"
   sodipodi:docname="DPZ.svg">
  <defs
     id="defs477">
    <clipPath
       clipPathUnits="userSpaceOnUse"
       id="clipPath58">
      <path
         d="M 0,0 H 595.276 V 708.661 H 0 Z"
         id="path56" />
    </clipPath>
    <clipPath
       clipPathUnits="userSpaceOnUse"
       id="clipPath178">
      <path
         d="M 0,0 H 595.276 V 708.661 H 0 Z"
         id="path176" />
    </clipPath>
    <clipPath
       clipPathUnits="userSpaceOnUse"
       id="clipPath214">
      <path
         d="M 0,0 H 595.276 V 708.661 H 0 Z"
         id="path212" />
    </clipPath>
  </defs>
  <sodipodi:namedview
     id="base"
     pagecolor="#ffffff"
     bordercolor="#666666"
     borderopacity="1.0"
     inkscape:pageopacity="0.0"
     inkscape:pageshadow="2"
     inkscape:zoom="3.0231935"
     inkscape:cx="77.452848"
     inkscape:cy="107.01245"
     inkscape:document-units="mm"
     inkscape:current-layer="layer1"
     inkscape:document-rotation="0"
     showgrid="false"
     inkscape:window-width="1920"
     inkscape:window-height="1012"
     inkscape:window-x="0"
     inkscape:window-y="32"
     inkscape:window-maximized="1"
     fit-margin-top="0"
     fit-margin-left="0"
     fit-margin-right="0"
     fit-margin-bottom="0" />
  <metadata
     id="metadata480">
    <rdf:RDF>
      <cc:Work
         rdf:about="">
        <dc:format>image/svg+xml</dc:format>
        <dc:type
           rdf:resource="http://purl.org/dc/dcmitype/StillImage" />
        <dc:title></dc:title>
      </cc:Work>
    </rdf:RDF>
  </metadata>
  <g
     inkscape:label="Layer 1"
     inkscape:groupmode="layer"
     id="layer1"
     transform="translate(-71.263513,-51.910167)">
    <g
       id="g52"
       transform="matrix(0.35277777,0,0,-0.35277777,-67.618392,106.29019)">
      <g
         id="g54"
         clip-path="url(#clipPath58)">
        <g
           id="g60"
           transform="translate(400.5112,78.0043)">
          <path
             d="M 0,0 C -2.613,0 -4.772,0.113 -6.78,0.151 V 25.68 c 2.008,0.037 4.962,0.151 7.916,0.151 8.068,0 13.029,-3.674 13.029,-12.537 C 14.165,4.507 8.332,0 0,0 m 0.833,22.422 c -1.25,0 -2.575,-0.038 -3.484,-0.113 V 3.712 c 0.833,-0.114 2.083,-0.19 3.067,-0.19 5.492,0 9.356,2.916 9.356,9.469 0,6.06 -2.689,9.431 -8.939,9.431"
             style="fill:#4f4c4d;fill-opacity:1;fill-rule:nonzero;stroke:none"
             id="path62" />
        </g>
        <g
           id="g64"
           transform="translate(425.1316,87.5107)">
          <path
             d="m 0,0 c -0.568,0 -1.25,0 -1.894,0.076 v -9.431 h -4.128 v 25.566 c 1.969,0.075 4.166,0.151 6.552,0.151 6.06,0 9.393,-2.954 9.393,-7.688 C 9.923,3.712 5.946,0 0,0 m 0.227,12.991 c -0.795,0 -1.439,0 -2.121,-0.076 V 3.56 c 0.568,-0.076 1.212,-0.151 1.818,-0.151 3.447,0.038 5.719,1.932 5.719,4.923 0,2.917 -1.704,4.659 -5.416,4.659"
             style="fill:#4f4c4d;fill-opacity:1;fill-rule:nonzero;stroke:none"
             id="path66" />
        </g>
        <g
           id="g68"
           transform="translate(437.1017,78.1553)">
          <path
             d="m 0,0 v 3.144 l 10.075,16.021 c 0.606,0.985 1.212,1.856 1.894,2.765 C 10.87,21.892 9.393,21.892 6.78,21.892 H 0.379 v 3.674 H 16.855 V 22.309 L 6.25,5.757 C 5.833,5.038 5.416,4.432 4.924,3.712 5.605,3.788 7.651,3.788 10.908,3.788 h 6.098 V 0 Z"
             style="fill:#4f4c4d;fill-opacity:1;fill-rule:nonzero;stroke:none"
             id="path70" />
        </g>
        <g
           id="g72"
           transform="translate(396.086,61.6976)">
          <path
             d="m 0,0 c -0.927,0 -1.693,0.04 -2.405,0.054 v 9.057 c 0.712,0.014 1.76,0.054 2.808,0.054 2.863,0 4.623,-1.304 4.623,-4.448 C 5.026,1.599 2.956,0 0,0 m 0.296,7.955 c -0.444,0 -0.914,-0.013 -1.237,-0.04 V 1.317 c 0.296,-0.04 0.74,-0.067 1.089,-0.067 1.948,0 3.319,1.034 3.319,3.36 0,2.15 -0.954,3.345 -3.171,3.345"
             style="fill:#12ab4a;fill-opacity:1;fill-rule:nonzero;stroke:none"
             id="path74" />
        </g>
        <g
           id="g76"
           transform="translate(408.1525,64.9766)">
          <path
             d="m 0,0 h -4.26 c -0.04,-1.518 0.645,-2.204 1.976,-2.204 0.645,0 1.316,0.134 1.921,0.403 l 0.188,-1.129 c -0.698,-0.282 -1.531,-0.43 -2.365,-0.43 -2.056,0 -3.198,1.075 -3.198,3.427 0,2.016 1.102,3.521 3.05,3.521 1.909,0 2.728,-1.303 2.728,-2.889 C 0.04,0.511 0.027,0.282 0,0 m -2.741,2.526 c -0.807,0 -1.371,-0.591 -1.492,-1.532 h 2.835 c 0.027,0.954 -0.497,1.532 -1.343,1.532"
             style="fill:#12ab4a;fill-opacity:1;fill-rule:nonzero;stroke:none"
             id="path78" />
        </g>
        <g
           id="g80"
           transform="translate(414.2796,61.7515)">
          <path
             d="M 0,0 C 0,0.363 0.027,0.941 0.094,1.317 H 0.081 c -0.39,-0.86 -1.196,-1.451 -2.325,-1.451 -1.519,0 -1.989,0.967 -1.989,2.136 v 4.677 h 1.425 V 2.392 c 0,-0.833 0.228,-1.33 0.994,-1.33 1.008,0 1.747,1.061 1.747,2.405 V 6.679 H 1.371 V 0 Z"
             style="fill:#12ab4a;fill-opacity:1;fill-rule:nonzero;stroke:none"
             id="path82" />
        </g>
        <g
           id="g84"
           transform="translate(420.1111,61.6304)">
          <path
             d="M 0,0 C -1.425,0 -1.855,0.551 -1.855,2.043 V 5.685 H -3.131 V 6.8 h 1.276 v 2.123 l 1.438,0.39 V 6.8 H 1.33 V 5.685 H -0.417 V 2.486 c 0,-0.994 0.202,-1.263 0.874,-1.263 0.296,0 0.578,0.04 0.819,0.094 L 1.398,0.162 C 0.994,0.067 0.443,0 0,0"
             style="fill:#12ab4a;fill-opacity:1;fill-rule:nonzero;stroke:none"
             id="path86" />
        </g>
        <g
           id="g88"
           transform="translate(424.3436,61.6171)">
          <path
             d="m 0,0 c -0.511,0 -1.062,0.067 -1.478,0.188 l 0.107,1.223 c 0.417,-0.161 0.954,-0.255 1.465,-0.255 0.752,0 1.277,0.336 1.277,0.873 0,1.371 -2.93,0.538 -2.93,2.849 0,1.169 0.887,2.07 2.728,2.07 0.403,0 0.874,-0.054 1.263,-0.135 L 2.352,5.657 C 1.962,5.779 1.518,5.846 1.088,5.846 0.296,5.846 -0.081,5.523 -0.081,5.012 -0.081,3.696 2.876,4.421 2.876,2.177 2.876,0.914 1.774,0 0,0"
             style="fill:#12ab4a;fill-opacity:1;fill-rule:nonzero;stroke:none"
             id="path90" />
        </g>
        <g
           id="g92"
           transform="translate(431.5322,61.6437)">
          <path
             d="m 0,0 c -1.72,0 -2.97,0.847 -2.97,3.226 0,2.123 1.089,3.668 3.319,3.668 0.565,0 1.116,-0.08 1.559,-0.255 L 1.666,5.416 c -0.403,0.161 -0.9,0.282 -1.397,0.282 -1.129,0 -1.734,-0.941 -1.734,-2.311 0,-1.223 0.43,-2.15 1.747,-2.15 0.524,0 1.021,0.094 1.438,0.295 L 1.935,0.336 C 1.384,0.108 0.672,0 0,0"
             style="fill:#12ab4a;fill-opacity:1;fill-rule:nonzero;stroke:none"
             id="path94" />
        </g>
        <g
           id="g96"
           transform="translate(439.299,61.7515)">
          <path
             d="m 0,0 v 4.287 c 0,0.833 -0.229,1.33 -0.995,1.33 -1.007,0 -1.746,-1.061 -1.746,-2.405 V 0 h -1.438 v 9.81 h 1.438 V 6.773 c 0,-0.417 -0.027,-0.968 -0.121,-1.344 l 0.027,-0.013 c 0.389,0.846 1.182,1.397 2.271,1.397 1.518,0 1.988,-0.967 1.988,-2.137 L 1.424,0 Z"
             style="fill:#12ab4a;fill-opacity:1;fill-rule:nonzero;stroke:none"
             id="path98" />
        </g>
        <g
           id="g100"
           transform="translate(448.2481,64.9766)">
          <path
             d="m 0,0 h -4.26 c -0.04,-1.518 0.645,-2.204 1.975,-2.204 0.646,0 1.318,0.134 1.922,0.403 l 0.189,-1.129 c -0.699,-0.282 -1.533,-0.43 -2.366,-0.43 -2.056,0 -3.198,1.075 -3.198,3.427 0,2.016 1.102,3.521 3.051,3.521 1.908,0 2.728,-1.303 2.728,-2.889 C 0.041,0.511 0.027,0.282 0,0 m -2.741,2.526 c -0.806,0 -1.371,-0.591 -1.492,-1.532 h 2.836 c 0.026,0.954 -0.498,1.532 -1.344,1.532"
             style="fill:#12ab4a;fill-opacity:1;fill-rule:nonzero;stroke:none"
             id="path102" />
        </g>
        <g
           id="g104"
           transform="translate(451.2707,61.6171)">
          <path
             d="m 0,0 c -0.511,0 -1.061,0.067 -1.478,0.188 l 0.107,1.223 c 0.417,-0.161 0.955,-0.255 1.465,-0.255 0.753,0 1.277,0.336 1.277,0.873 0,1.371 -2.929,0.538 -2.929,2.849 0,1.169 0.886,2.07 2.727,2.07 0.403,0 0.874,-0.054 1.263,-0.135 L 2.352,5.657 c -0.39,0.122 -0.833,0.189 -1.263,0.189 -0.793,0 -1.17,-0.323 -1.17,-0.834 0,-1.316 2.957,-0.591 2.957,-2.835 C 2.876,0.914 1.774,0 0,0"
             style="fill:#12ab4a;fill-opacity:1;fill-rule:nonzero;stroke:none"
             id="path106" />
        </g>
        <g
           id="g108"
           transform="translate(461.3214,65.0706)">
          <path
             d="m 0,0 c -0.201,0 -0.443,0 -0.672,0.027 v -3.346 h -1.464 v 9.071 c 0.698,0.027 1.478,0.053 2.324,0.053 2.15,0 3.333,-1.048 3.333,-2.728 C 3.521,1.317 2.11,0 0,0 m 0.081,4.61 c -0.282,0 -0.511,0 -0.753,-0.028 V 1.263 c 0.202,-0.026 0.43,-0.054 0.645,-0.054 1.223,0.014 2.029,0.686 2.029,1.748 0,1.034 -0.604,1.653 -1.921,1.653"
             style="fill:#12ab4a;fill-opacity:1;fill-rule:nonzero;stroke:none"
             id="path110" />
        </g>
        <g
           id="g112"
           transform="translate(469.9075,67.1401)">
          <path
             d="M 0,0 C -1.33,0.255 -1.975,-0.672 -1.975,-2.674 V -5.389 H -3.413 V 1.29 h 1.371 c 0,-0.376 -0.041,-0.967 -0.135,-1.478 h 0.027 c 0.296,0.9 0.968,1.734 2.217,1.599 z"
             style="fill:#12ab4a;fill-opacity:1;fill-rule:nonzero;stroke:none"
             id="path114" />
        </g>
        <g
           id="g116"
           transform="translate(472.2187,69.6129)">
          <path
             d="M 0,0 C -0.511,0 -0.927,0.39 -0.927,0.9 -0.927,1.397 -0.511,1.801 0,1.801 0.497,1.801 0.914,1.397 0.914,0.9 0.914,0.403 0.497,0 0,0 m -0.726,-1.183 h 1.438 v -6.679 h -1.438 z"
             style="fill:#12ab4a;fill-opacity:1;fill-rule:nonzero;stroke:none"
             id="path118" />
        </g>
        <g
           id="g120"
           transform="translate(483.4659,61.7515)">
          <path
             d="m 0,0 v 4.26 c 0,0.82 -0.202,1.357 -0.967,1.357 -0.86,0 -1.72,-0.954 -1.72,-2.432 V 0 h -1.411 v 4.26 c 0,0.766 -0.162,1.357 -0.968,1.357 -0.914,0 -1.707,-1.021 -1.707,-2.432 V 0 H -8.21 v 6.679 h 1.37 c 0,-0.363 -0.027,-0.914 -0.094,-1.317 l 0.027,-0.013 c 0.39,0.886 1.223,1.464 2.257,1.464 1.318,0 1.748,-0.847 1.855,-1.438 0.282,0.632 1.021,1.438 2.231,1.438 1.276,0 1.989,-0.699 1.989,-2.204 L 1.425,0 Z"
             style="fill:#12ab4a;fill-opacity:1;fill-rule:nonzero;stroke:none"
             id="path122" />
        </g>
        <g
           id="g124"
           transform="translate(490.775,61.7515)">
          <path
             d="M 0,0 C 0,0.43 0.013,0.873 0.067,1.236 L 0.054,1.25 c -0.322,-0.793 -1.156,-1.384 -2.217,-1.384 -1.143,0 -1.868,0.766 -1.868,1.854 0,1.505 1.491,2.325 3.937,2.325 v 0.39 c 0,0.819 -0.349,1.263 -1.397,1.263 -0.619,0 -1.371,-0.202 -1.909,-0.484 L -3.682,6.37 c 0.672,0.255 1.572,0.443 2.432,0.443 2.029,0 2.594,-0.887 2.594,-2.217 V 1.828 C 1.344,1.25 1.357,0.564 1.384,0 Z m -0.094,3.077 c -2.002,0 -2.553,-0.551 -2.553,-1.182 0,-0.511 0.349,-0.9 0.914,-0.9 0.981,0 1.639,0.94 1.639,1.894 z"
             style="fill:#12ab4a;fill-opacity:1;fill-rule:nonzero;stroke:none"
             id="path126" />
        </g>
        <g
           id="g128"
           transform="translate(496.4586,61.6304)">
          <path
             d="M 0,0 C -1.424,0 -1.854,0.551 -1.854,2.043 V 5.685 H -3.131 V 6.8 h 1.277 v 2.123 l 1.438,0.39 V 6.8 H 1.331 V 5.685 H -0.416 V 2.486 c 0,-0.994 0.201,-1.263 0.873,-1.263 0.296,0 0.578,0.04 0.82,0.094 L 1.398,0.162 C 0.995,0.067 0.444,0 0,0"
             style="fill:#12ab4a;fill-opacity:1;fill-rule:nonzero;stroke:none"
             id="path130" />
        </g>
        <g
           id="g132"
           transform="translate(504.763,64.9766)">
          <path
             d="m 0,0 h -4.26 c -0.04,-1.518 0.645,-2.204 1.975,-2.204 0.645,0 1.318,0.134 1.922,0.403 l 0.189,-1.129 c -0.699,-0.282 -1.533,-0.43 -2.366,-0.43 -2.056,0 -3.198,1.075 -3.198,3.427 0,2.016 1.102,3.521 3.051,3.521 1.908,0 2.728,-1.303 2.728,-2.889 C 0.041,0.511 0.027,0.282 0,0 m -2.741,2.526 c -0.806,0 -1.371,-0.591 -1.492,-1.532 h 2.836 c 0.026,0.954 -0.498,1.532 -1.344,1.532"
             style="fill:#12ab4a;fill-opacity:1;fill-rule:nonzero;stroke:none"
             id="path134" />
        </g>
        <g
           id="g136"
           transform="translate(510.8362,61.7515)">
          <path
             d="m 0,0 v 4.287 c 0,0.833 -0.228,1.33 -0.994,1.33 -1.008,0 -1.747,-1.061 -1.747,-2.405 V 0 h -1.438 v 6.679 h 1.371 c 0,-0.363 -0.028,-0.941 -0.095,-1.317 h 0.014 c 0.389,0.86 1.196,1.451 2.325,1.451 1.518,0 1.988,-0.967 1.988,-2.137 L 1.424,0 Z"
             style="fill:#12ab4a;fill-opacity:1;fill-rule:nonzero;stroke:none"
             id="path138" />
        </g>
        <g
           id="g140"
           transform="translate(514.1682,61.7515)">
          <path
             d="M 0,0 V 1.021 L 2.97,5.416 C 2.634,5.402 2.042,5.389 1.357,5.389 h -1.29 v 1.29 H 4.676 V 5.671 L 1.747,1.29 c 0.336,0.013 1.129,0.027 1.68,0.027 H 4.73 V 0 Z"
             style="fill:#12ab4a;fill-opacity:1;fill-rule:nonzero;stroke:none"
             id="path142" />
        </g>
        <g
           id="g144"
           transform="translate(525.9394,64.9766)">
          <path
             d="m 0,0 h -4.26 c -0.04,-1.518 0.645,-2.204 1.975,-2.204 0.645,0 1.318,0.134 1.922,0.403 l 0.188,-1.129 c -0.698,-0.282 -1.532,-0.43 -2.365,-0.43 -2.056,0 -3.198,1.075 -3.198,3.427 0,2.016 1.102,3.521 3.051,3.521 C -0.78,3.588 0.04,2.285 0.04,0.699 0.04,0.511 0.027,0.282 0,0 m -2.741,2.526 c -0.806,0 -1.371,-0.591 -1.492,-1.532 h 2.836 c 0.026,0.954 -0.498,1.532 -1.344,1.532"
             style="fill:#12ab4a;fill-opacity:1;fill-rule:nonzero;stroke:none"
             id="path146" />
        </g>
        <g
           id="g148"
           transform="translate(532.0126,61.7515)">
          <path
             d="m 0,0 v 4.287 c 0,0.833 -0.228,1.33 -0.994,1.33 -1.008,0 -1.747,-1.061 -1.747,-2.405 V 0 h -1.438 v 6.679 h 1.371 c 0,-0.363 -0.028,-0.941 -0.095,-1.317 h 0.014 c 0.389,0.86 1.196,1.451 2.325,1.451 1.518,0 1.988,-0.967 1.988,-2.137 L 1.424,0 Z"
             style="fill:#12ab4a;fill-opacity:1;fill-rule:nonzero;stroke:none"
             id="path150" />
        </g>
        <g
           id="g152"
           transform="translate(537.7902,61.6304)">
          <path
             d="M 0,0 C -1.424,0 -1.854,0.551 -1.854,2.043 V 5.685 H -3.131 V 6.8 h 1.277 v 2.123 l 1.438,0.39 V 6.8 H 1.331 V 5.685 H -0.416 V 2.486 c 0,-0.994 0.201,-1.263 0.873,-1.263 0.296,0 0.578,0.04 0.82,0.094 L 1.398,0.162 C 0.995,0.067 0.444,0 0,0"
             style="fill:#12ab4a;fill-opacity:1;fill-rule:nonzero;stroke:none"
             id="path154" />
        </g>
        <g
           id="g156"
           transform="translate(544.3073,67.1401)">
          <path
             d="M 0,0 C -1.33,0.255 -1.975,-0.672 -1.975,-2.674 V -5.389 H -3.413 V 1.29 h 1.371 c 0,-0.376 -0.041,-0.967 -0.135,-1.478 h 0.027 c 0.295,0.9 0.968,1.734 2.217,1.599 z"
             style="fill:#12ab4a;fill-opacity:1;fill-rule:nonzero;stroke:none"
             id="path158" />
        </g>
        <g
           id="g160"
           transform="translate(550.1259,61.7515)">
          <path
             d="M 0,0 C 0,0.363 0.027,0.941 0.094,1.317 H 0.081 c -0.39,-0.86 -1.197,-1.451 -2.325,-1.451 -1.519,0 -1.989,0.967 -1.989,2.136 v 4.677 h 1.424 V 2.392 c 0,-0.833 0.229,-1.33 0.995,-1.33 1.007,0 1.747,1.061 1.747,2.405 V 6.679 H 1.371 V 0 Z"
             style="fill:#12ab4a;fill-opacity:1;fill-rule:nonzero;stroke:none"
             id="path162" />
        </g>
        <g
           id="g164"
           transform="translate(562.0311,61.7515)">
          <path
             d="m 0,0 v 4.26 c 0,0.82 -0.202,1.357 -0.967,1.357 -0.86,0 -1.72,-0.954 -1.72,-2.432 V 0 h -1.412 v 4.26 c 0,0.766 -0.161,1.357 -0.967,1.357 -0.914,0 -1.707,-1.021 -1.707,-2.432 V 0 H -8.21 v 6.679 h 1.37 c 0,-0.363 -0.027,-0.914 -0.094,-1.317 l 0.027,-0.013 c 0.389,0.886 1.223,1.464 2.257,1.464 1.318,0 1.748,-0.847 1.855,-1.438 0.282,0.632 1.021,1.438 2.231,1.438 1.276,0 1.988,-0.699 1.988,-2.204 L 1.424,0 Z"
             style="fill:#12ab4a;fill-opacity:1;fill-rule:nonzero;stroke:none"
             id="path166" />
        </g>
      </g>
    </g>
    <g
       id="g168"
       transform="matrix(0.35277777,0,0,-0.35277777,71.38138,89.273668)">
      <path
         d="M 0,0 V 6.963 H 0.794 V 0.67 H 3.373 V 0 Z"
         style="fill:#4f4c4d;fill-opacity:1;fill-rule:nonzero;stroke:none"
         id="path170" />
    </g>
    <g
       id="g172"
       transform="matrix(0.35277777,0,0,-0.35277777,-67.618392,106.29019)">
      <g
         id="g174"
         clip-path="url(#clipPath178)">
        <g
           id="g180"
           transform="translate(402.019,50.9282)">
          <path
             d="m 0,0 h -3.425 c -0.052,-1.506 0.557,-2.135 1.702,-2.135 0.495,0 1.011,0.103 1.455,0.299 l 0.134,-0.629 c -0.506,-0.207 -1.104,-0.32 -1.744,-0.32 -1.526,0 -2.352,0.835 -2.352,2.63 0,1.537 0.826,2.683 2.249,2.683 1.414,0 2.001,-0.981 2.001,-2.115 C 0.02,0.32 0.02,0.186 0,0 m -2.022,1.939 c -0.722,0 -1.238,-0.526 -1.362,-1.372 h 2.6 c 0.021,0.836 -0.454,1.372 -1.238,1.372"
             style="fill:#4f4c4d;fill-opacity:1;fill-rule:nonzero;stroke:none"
             id="path182" />
        </g>
        <g
           id="g184"
           transform="translate(403.8744,54.4872)">
          <path
             d="m 0,0 c -0.299,0 -0.536,0.227 -0.536,0.526 0,0.289 0.237,0.526 0.536,0.526 0.289,0 0.536,-0.226 0.536,-0.526 C 0.536,0.238 0.289,0 0,0 m -0.392,-1.124 h 0.774 v -5.127 h -0.774 z"
             style="fill:#4f4c4d;fill-opacity:1;fill-rule:nonzero;stroke:none"
             id="path186" />
        </g>
        <g
           id="g188"
           transform="translate(407.8349,48.1741)">
          <path
             d="m 0,0 c -0.691,0 -1.176,0.052 -1.702,0.196 v 7.397 h 0.774 v -2.6 c 0,-0.289 -0.031,-0.681 -0.093,-0.939 l 0.02,-0.01 c 0.289,0.773 0.949,1.238 1.754,1.238 1.207,0 1.888,-0.836 1.888,-2.425 C 2.641,1.031 1.609,0 0,0 m 0.598,4.642 c -1.031,0 -1.526,-1.197 -1.526,-2.104 V 0.743 c 0.299,-0.093 0.608,-0.134 1,-0.134 1.063,0 1.754,0.639 1.754,2.187 0,1.155 -0.382,1.846 -1.228,1.846"
             style="fill:#4f4c4d;fill-opacity:1;fill-rule:nonzero;stroke:none"
             id="path190" />
        </g>
        <g
           id="g192"
           transform="translate(415.1885,48.2358)">
          <path
             d="M 0,0 V 3.311 C 0,4.116 -0.217,4.58 -0.96,4.58 -1.878,4.58 -2.527,3.673 -2.527,2.455 V 0 h -0.774 v 5.127 h 0.763 c 0,-0.341 -0.031,-0.836 -0.082,-1.145 L -2.6,3.971 c 0.289,0.754 0.939,1.249 1.837,1.249 1.176,0 1.537,-0.732 1.537,-1.65 V 0 Z"
             style="fill:#4f4c4d;fill-opacity:1;fill-rule:nonzero;stroke:none"
             id="path194" />
        </g>
        <g
           id="g196"
           transform="translate(418.2299,54.4872)">
          <path
             d="m 0,0 c -0.299,0 -0.536,0.227 -0.536,0.526 0,0.289 0.237,0.526 0.536,0.526 0.289,0 0.536,-0.226 0.536,-0.526 C 0.536,0.238 0.289,0 0,0 m -0.392,-1.124 h 0.774 v -5.127 h -0.774 z"
             style="fill:#4f4c4d;fill-opacity:1;fill-rule:nonzero;stroke:none"
             id="path198" />
        </g>
        <g
           id="g200"
           transform="translate(420.0549,48.2358)">
          <path
             d="m 0,0 v 0.547 l 2.61,3.91 C 2.28,4.446 1.733,4.436 1.155,4.436 H 0.052 V 5.127 H 3.497 V 4.591 l -2.589,-3.9 c 0.309,0.011 1,0.021 1.485,0.021 H 3.549 V 0 Z"
             style="fill:#4f4c4d;fill-opacity:1;fill-rule:nonzero;stroke:none"
             id="path202" />
        </g>
      </g>
    </g>
    <path
       d="m 82.121312,88.327449 h 0.844197 v -0.225425 h -0.844197 z"
       style="fill:#4f4c4d;fill-opacity:1;fill-rule:nonzero;stroke:none;stroke-width:0.352777"
       id="path204" />
    <path
       d="m 83.47104,89.273599 h 0.280458 V 86.817208 H 83.47104 Z"
       style="fill:#4f4c4d;fill-opacity:1;fill-rule:nonzero;stroke:none;stroke-width:0.352777"
       id="path206" />
    <g
       id="g208"
       transform="matrix(0.35277777,0,0,-0.35277777,-67.618392,106.29019)">
      <g
         id="g210"
         clip-path="url(#clipPath214)">
        <g
           id="g216"
           transform="translate(434.2571,48.2358)">
          <path
             d="M 0,0 V 3.311 C 0,4.116 -0.217,4.58 -0.96,4.58 -1.878,4.58 -2.527,3.673 -2.527,2.455 V 0 h -0.774 v 5.127 h 0.763 c 0,-0.341 -0.031,-0.836 -0.082,-1.145 L -2.6,3.971 c 0.289,0.754 0.939,1.249 1.837,1.249 1.176,0 1.537,-0.732 1.537,-1.65 V 0 Z"
             style="fill:#4f4c4d;fill-opacity:1;fill-rule:nonzero;stroke:none"
             id="path218" />
        </g>
        <g
           id="g220"
           transform="translate(437.7007,48.1428)">
          <path
             d="m 0,0 c -0.392,0 -0.825,0.041 -1.145,0.134 l 0.093,0.712 c 0.33,-0.124 0.763,-0.196 1.155,-0.196 0.712,0 1.228,0.33 1.228,0.867 0,1.248 -2.507,0.464 -2.507,2.29 0,0.856 0.671,1.506 1.981,1.506 0.32,0 0.712,-0.052 1.011,-0.114 L 1.744,4.55 C 1.434,4.642 1.073,4.704 0.722,4.704 -0.021,4.704 -0.382,4.395 -0.382,3.889 -0.382,2.651 2.125,3.384 2.125,1.62 2.125,0.712 1.331,0 0,0"
             style="fill:#4f4c4d;fill-opacity:1;fill-rule:nonzero;stroke:none"
             id="path222" />
        </g>
        <g
           id="g224"
           transform="translate(442.8471,48.1534)">
          <path
             d="m 0,0 c -1.032,0 -1.331,0.454 -1.331,1.516 v 3.085 h -1.114 v 0.608 h 1.114 v 1.703 l 0.774,0.216 V 5.209 H 0.949 V 4.601 H -0.557 V 1.836 c 0,-0.918 0.165,-1.155 0.774,-1.155 0.258,0 0.495,0.031 0.691,0.082 L 1.001,0.113 C 0.712,0.052 0.32,0 0,0"
             style="fill:#4f4c4d;fill-opacity:1;fill-rule:nonzero;stroke:none"
             id="path226" />
        </g>
        <g
           id="g228"
           transform="translate(445.5281,54.4872)">
          <path
             d="m 0,0 c -0.299,0 -0.536,0.227 -0.536,0.526 0,0.289 0.237,0.526 0.536,0.526 0.289,0 0.537,-0.226 0.537,-0.526 C 0.537,0.238 0.289,0 0,0 m -0.392,-1.124 h 0.773 v -5.127 h -0.773 z"
             style="fill:#4f4c4d;fill-opacity:1;fill-rule:nonzero;stroke:none"
             id="path230" />
        </g>
        <g
           id="g232"
           transform="translate(449.313,48.1534)">
          <path
             d="m 0,0 c -1.032,0 -1.331,0.454 -1.331,1.516 v 3.085 h -1.114 v 0.608 h 1.114 v 1.703 l 0.774,0.216 V 5.209 H 0.949 V 4.601 H -0.557 V 1.836 c 0,-0.918 0.165,-1.155 0.774,-1.155 0.258,0 0.495,0.031 0.691,0.082 L 1.001,0.113 C 0.712,0.052 0.32,0 0,0"
             style="fill:#4f4c4d;fill-opacity:1;fill-rule:nonzero;stroke:none"
             id="path234" />
        </g>
        <g
           id="g236"
           transform="translate(454.9134,48.2358)">
          <path
             d="M 0,0 C 0,0.34 0.031,0.836 0.083,1.145 L 0.062,1.156 c -0.289,-0.754 -0.939,-1.249 -1.836,-1.249 -1.176,0 -1.537,0.733 -1.537,1.651 v 3.569 h 0.773 V 1.816 c 0,-0.805 0.217,-1.269 0.96,-1.269 0.918,0 1.568,0.907 1.568,2.125 V 5.127 H 0.763 V 0 Z"
             style="fill:#4f4c4d;fill-opacity:1;fill-rule:nonzero;stroke:none"
             id="path238" />
        </g>
        <g
           id="g240"
           transform="translate(459.0797,48.1534)">
          <path
             d="m 0,0 c -1.032,0 -1.331,0.454 -1.331,1.516 v 3.085 h -1.114 v 0.608 h 1.114 v 1.703 l 0.774,0.216 V 5.209 H 0.949 V 4.601 H -0.557 V 1.836 c 0,-0.918 0.165,-1.155 0.774,-1.155 0.258,0 0.495,0.031 0.691,0.082 L 1,0.113 C 0.712,0.052 0.32,0 0,0"
             style="fill:#4f4c4d;fill-opacity:1;fill-rule:nonzero;stroke:none"
             id="path242" />
        </g>
        <g
           id="g244"
           transform="translate(466.7325,55.0751)">
          <path
             d="m 0,0 c -0.258,0.083 -0.537,0.114 -0.805,0.114 -0.784,0 -1.135,-0.454 -1.135,-1.445 v -0.381 h 1.517 V -2.321 H -1.94 v -4.518 h -0.773 v 4.518 h -1.114 v 0.609 h 1.114 v 0.361 c 0,1.434 0.712,2.094 1.939,2.094 0.289,0 0.567,-0.031 0.846,-0.093 z"
             style="fill:#4f4c4d;fill-opacity:1;fill-rule:nonzero;stroke:none"
             id="path246" />
        </g>
        <g
           id="g248"
           transform="translate(470.6718,48.2358)">
          <path
             d="M 0,0 C 0,0.34 0.031,0.836 0.083,1.145 L 0.062,1.156 c -0.289,-0.754 -0.939,-1.249 -1.836,-1.249 -1.176,0 -1.537,0.733 -1.537,1.651 v 3.569 h 0.773 V 1.816 c 0,-0.805 0.217,-1.269 0.96,-1.269 0.918,0 1.568,0.907 1.568,2.125 V 5.127 H 0.763 V 0 Z m -2.279,6.282 c -0.279,0 -0.496,0.217 -0.496,0.496 0,0.268 0.217,0.484 0.496,0.484 0.278,0 0.495,-0.216 0.495,-0.484 0,-0.279 -0.217,-0.496 -0.495,-0.496 m 1.939,0 c -0.279,0 -0.496,0.217 -0.496,0.496 0,0.268 0.217,0.484 0.496,0.484 0.268,0 0.495,-0.216 0.495,-0.484 0,-0.279 -0.227,-0.496 -0.495,-0.496"
             style="fill:#4f4c4d;fill-opacity:1;fill-rule:nonzero;stroke:none"
             id="path250" />
        </g>
        <g
           id="g252"
           transform="translate(475.7556,52.6819)">
          <path
             d="m 0,0 c -1.134,0.196 -1.671,-0.67 -1.671,-2.393 v -2.053 h -0.774 v 5.127 h 0.764 c 0,-0.341 -0.042,-0.846 -0.114,-1.29 l 0.011,-0.01 c 0.206,0.753 0.742,1.506 1.815,1.382 z"
             style="fill:#4f4c4d;fill-opacity:1;fill-rule:nonzero;stroke:none"
             id="path254" />
        </g>
        <g
           id="g256"
           transform="translate(480.6027,50.949)">
          <path
             d="M 0,0 C -0.206,0 -0.413,0.01 -0.599,0.031 V -2.713 H -1.393 V 4.25 C -0.898,4.271 -0.351,4.281 0.248,4.281 1.815,4.281 2.672,3.487 2.672,2.3 2.672,0.939 1.527,0 0,0 m 0.144,3.631 c -0.299,0 -0.526,0 -0.743,-0.01 V 0.701 C -0.413,0.681 -0.186,0.66 0.031,0.66 1.155,0.67 1.847,1.269 1.847,2.187 1.847,3.126 1.3,3.631 0.144,3.631"
             style="fill:#4f4c4d;fill-opacity:1;fill-rule:nonzero;stroke:none"
             id="path258" />
        </g>
        <g
           id="g260"
           transform="translate(487.0277,52.6819)">
          <path
             d="m 0,0 c -1.134,0.196 -1.671,-0.67 -1.671,-2.393 v -2.053 h -0.774 v 5.127 h 0.764 c 0,-0.341 -0.042,-0.846 -0.114,-1.29 l 0.01,-0.01 c 0.207,0.753 0.743,1.506 1.816,1.382 z"
             style="fill:#4f4c4d;fill-opacity:1;fill-rule:nonzero;stroke:none"
             id="path262" />
        </g>
        <g
           id="g264"
           transform="translate(488.6253,54.4872)">
          <path
             d="m 0,0 c -0.299,0 -0.536,0.227 -0.536,0.526 0,0.289 0.237,0.526 0.536,0.526 0.289,0 0.537,-0.226 0.537,-0.526 C 0.537,0.238 0.289,0 0,0 m -0.392,-1.124 h 0.774 v -5.127 h -0.774 z"
             style="fill:#4f4c4d;fill-opacity:1;fill-rule:nonzero;stroke:none"
             id="path266" />
        </g>
        <g
           id="g268"
           transform="translate(497.3523,48.2358)">
          <path
             d="M 0,0 V 3.301 C 0,4.075 -0.186,4.58 -0.929,4.58 -1.713,4.58 -2.466,3.765 -2.466,2.435 V 0 h -0.763 v 3.311 c 0,0.702 -0.144,1.269 -0.928,1.269 -0.846,0 -1.538,-0.887 -1.538,-2.145 V 0 h -0.773 v 5.127 h 0.763 c 0,-0.341 -0.021,-0.825 -0.082,-1.145 l 0.02,-0.011 c 0.289,0.754 0.959,1.249 1.806,1.249 1.165,0 1.413,-0.836 1.433,-1.228 0.186,0.485 0.743,1.228 1.785,1.228 0.959,0 1.516,-0.516 1.516,-1.671 L 0.773,0 Z"
             style="fill:#4f4c4d;fill-opacity:1;fill-rule:nonzero;stroke:none"
             id="path270" />
        </g>
        <g
           id="g272"
           transform="translate(502.7344,48.2358)">
          <path
             d="M 0,0 C 0,0.392 0,0.784 0.052,1.083 H 0.031 c -0.248,-0.65 -0.908,-1.176 -1.785,-1.176 -0.815,0 -1.403,0.526 -1.403,1.362 0,1.052 1.104,1.754 3.116,1.754 v 0.371 c 0,0.774 -0.279,1.207 -1.166,1.207 -0.495,0 -1.094,-0.165 -1.506,-0.392 l -0.176,0.64 c 0.495,0.216 1.145,0.371 1.806,0.371 1.423,0 1.826,-0.702 1.826,-1.661 V 1.537 c 0,-0.505 0,-1.083 0.02,-1.537 z m -0.041,2.455 c -1.826,0 -2.342,-0.516 -2.342,-1.073 0,-0.485 0.33,-0.846 0.836,-0.846 0.907,0 1.506,0.898 1.506,1.785 z"
             style="fill:#4f4c4d;fill-opacity:1;fill-rule:nonzero;stroke:none"
             id="path274" />
        </g>
        <g
           id="g276"
           transform="translate(506.7561,48.1534)">
          <path
             d="m 0,0 c -1.032,0 -1.331,0.454 -1.331,1.516 v 3.085 h -1.114 v 0.608 h 1.114 v 1.703 l 0.774,0.216 V 5.209 H 0.949 V 4.601 H -0.557 V 1.836 c 0,-0.918 0.165,-1.155 0.774,-1.155 0.258,0 0.495,0.031 0.691,0.082 L 1.001,0.113 C 0.712,0.052 0.32,0 0,0"
             style="fill:#4f4c4d;fill-opacity:1;fill-rule:nonzero;stroke:none"
             id="path278" />
        </g>
        <g
           id="g280"
           transform="translate(512.7897,50.9282)">
          <path
             d="m 0,0 h -3.424 c -0.052,-1.506 0.556,-2.135 1.702,-2.135 0.495,0 1.01,0.103 1.454,0.299 l 0.134,-0.629 c -0.506,-0.207 -1.104,-0.32 -1.743,-0.32 -1.527,0 -2.352,0.835 -2.352,2.63 0,1.537 0.825,2.683 2.248,2.683 1.414,0 2.002,-0.981 2.002,-2.115 C 0.021,0.32 0.021,0.186 0,0 m -2.022,1.939 c -0.722,0 -1.238,-0.526 -1.362,-1.372 h 2.6 c 0.021,0.836 -0.454,1.372 -1.238,1.372"
             style="fill:#4f4c4d;fill-opacity:1;fill-rule:nonzero;stroke:none"
             id="path282" />
        </g>
        <g
           id="g284"
           transform="translate(517.5544,48.2358)">
          <path
             d="M 0,0 V 3.311 C 0,4.116 -0.217,4.58 -0.959,4.58 -1.878,4.58 -2.528,3.673 -2.528,2.455 V 0 h -0.773 v 5.127 h 0.763 c 0,-0.341 -0.031,-0.836 -0.082,-1.145 l 0.021,-0.011 c 0.288,0.754 0.938,1.249 1.836,1.249 1.176,0 1.536,-0.732 1.536,-1.65 V 0 Z"
             style="fill:#4f4c4d;fill-opacity:1;fill-rule:nonzero;stroke:none"
             id="path286" />
        </g>
        <g
           id="g288"
           transform="translate(523.1645,55.0751)">
          <path
             d="m 0,0 c -0.258,0.083 -0.537,0.114 -0.805,0.114 -0.784,0 -1.135,-0.454 -1.135,-1.445 v -0.381 h 1.517 V -2.321 H -1.94 v -4.518 h -0.773 v 4.518 h -1.114 v 0.609 h 1.114 v 0.361 c 0,1.434 0.712,2.094 1.939,2.094 0.289,0 0.567,-0.031 0.846,-0.093 z"
             style="fill:#4f4c4d;fill-opacity:1;fill-rule:nonzero;stroke:none"
             id="path290" />
        </g>
        <g
           id="g292"
           transform="translate(525.3505,48.1428)">
          <path
             d="m 0,0 c -1.372,0 -2.259,0.836 -2.259,2.631 0,1.465 0.908,2.682 2.445,2.682 1.248,0 2.269,-0.691 2.269,-2.569 C 2.455,1.217 1.517,0 0,0 m 0.114,4.673 c -0.805,0 -1.568,-0.609 -1.568,-1.981 0,-1.309 0.567,-2.032 1.568,-2.032 0.804,0 1.537,0.619 1.537,2.032 0,1.238 -0.516,1.981 -1.537,1.981"
             style="fill:#4f4c4d;fill-opacity:1;fill-rule:nonzero;stroke:none"
             id="path294" />
        </g>
        <g
           id="g296"
           transform="translate(531.6309,52.6819)">
          <path
             d="m 0,0 c -1.134,0.196 -1.671,-0.67 -1.671,-2.393 v -2.053 h -0.774 v 5.127 h 0.764 c 0,-0.341 -0.042,-0.846 -0.114,-1.29 l 0.011,-0.01 c 0.206,0.753 0.742,1.506 1.815,1.382 z"
             style="fill:#4f4c4d;fill-opacity:1;fill-rule:nonzero;stroke:none"
             id="path298" />
        </g>
        <g
           id="g300"
           transform="translate(533.6313,48.1428)">
          <path
             d="m 0,0 c -0.392,0 -0.825,0.041 -1.145,0.134 l 0.093,0.712 c 0.33,-0.124 0.763,-0.196 1.155,-0.196 0.712,0 1.228,0.33 1.228,0.867 0,1.248 -2.507,0.464 -2.507,2.29 0,0.856 0.671,1.506 1.981,1.506 0.32,0 0.712,-0.052 1.011,-0.114 L 1.744,4.55 C 1.434,4.642 1.073,4.704 0.722,4.704 -0.021,4.704 -0.382,4.395 -0.382,3.889 -0.382,2.651 2.125,3.384 2.125,1.62 2.125,0.712 1.331,0 0,0"
             style="fill:#4f4c4d;fill-opacity:1;fill-rule:nonzero;stroke:none"
             id="path302" />
        </g>
        <g
           id="g304"
           transform="translate(538.9841,48.1635)">
          <path
             d="m 0,0 c -1.145,0 -2.218,0.516 -2.218,2.455 0,1.682 0.846,2.817 2.445,2.817 0.495,0 0.949,-0.083 1.31,-0.227 L 1.383,4.395 C 1.042,4.529 0.588,4.642 0.134,4.642 c -0.99,0 -1.537,-0.856 -1.537,-2.053 0,-1.052 0.33,-1.929 1.558,-1.929 0.464,0 0.897,0.093 1.269,0.269 L 1.568,0.289 C 1.125,0.103 0.547,0 0,0"
             style="fill:#4f4c4d;fill-opacity:1;fill-rule:nonzero;stroke:none"
             id="path306" />
        </g>
        <g
           id="g308"
           transform="translate(545.09,48.2358)">
          <path
             d="M 0,0 V 3.311 C 0,4.116 -0.217,4.58 -0.959,4.58 -1.878,4.58 -2.528,3.673 -2.528,2.455 V 0 h -0.773 v 7.531 h 0.773 V 5.013 c 0,-0.34 -0.02,-0.763 -0.082,-1.021 l 0.021,-0.01 c 0.299,0.753 0.938,1.238 1.826,1.238 1.176,0 1.536,-0.732 1.536,-1.65 V 0 Z"
             style="fill:#4f4c4d;fill-opacity:1;fill-rule:nonzero;stroke:none"
             id="path310" />
        </g>
        <g
           id="g312"
           transform="translate(551.0504,48.2358)">
          <path
             d="M 0,0 C 0,0.34 0.031,0.836 0.083,1.145 L 0.062,1.156 c -0.289,-0.754 -0.939,-1.249 -1.836,-1.249 -1.176,0 -1.537,0.733 -1.537,1.651 v 3.569 h 0.773 V 1.816 c 0,-0.805 0.217,-1.269 0.96,-1.269 0.918,0 1.568,0.907 1.568,2.125 V 5.127 H 0.763 V 0 Z"
             style="fill:#4f4c4d;fill-opacity:1;fill-rule:nonzero;stroke:none"
             id="path314" />
        </g>
        <g
           id="g316"
           transform="translate(556.991,48.2358)">
          <path
             d="M 0,0 V 3.311 C 0,4.116 -0.217,4.58 -0.959,4.58 -1.878,4.58 -2.528,3.673 -2.528,2.455 V 0 h -0.773 v 5.127 h 0.763 c 0,-0.341 -0.031,-0.836 -0.082,-1.145 l 0.021,-0.011 c 0.288,0.754 0.938,1.249 1.836,1.249 1.176,0 1.536,-0.732 1.536,-1.65 V 0 Z"
             style="fill:#4f4c4d;fill-opacity:1;fill-rule:nonzero;stroke:none"
             id="path318" />
        </g>
        <g
           id="g320"
           transform="translate(561.2811,45.5848)">
          <path
             d="m 0,0 c -1.3,0 -2.146,0.547 -2.146,1.527 0,0.629 0.413,1.134 0.897,1.413 -0.319,0.124 -0.515,0.413 -0.515,0.753 0,0.351 0.217,0.67 0.557,0.846 -0.475,0.278 -0.753,0.743 -0.753,1.423 0,1.011 0.763,1.909 2.135,1.909 0.268,0 0.434,-0.031 0.691,-0.093 H 2.61 V 7.169 H 1.691 C 1.991,6.932 2.166,6.551 2.166,6.107 2.166,5.065 1.465,4.24 0.02,4.24 c -0.227,0 -0.412,0.02 -0.598,0.082 -0.248,-0.113 -0.381,-0.299 -0.381,-0.474 0,-0.31 0.288,-0.413 0.928,-0.434 L 0.949,3.373 C 2.063,3.332 2.672,2.806 2.672,1.908 2.672,0.825 1.568,0 0,0 m 0.732,2.713 -1.031,0.041 h -0.33 c -0.444,-0.289 -0.733,-0.66 -0.733,-1.093 0,-0.661 0.64,-1.042 1.496,-1.042 1.124,0 1.744,0.505 1.744,1.186 0,0.547 -0.362,0.877 -1.146,0.908 m -0.598,4.56 c -0.836,0 -1.32,-0.537 -1.32,-1.249 0,-0.774 0.464,-1.207 1.289,-1.207 0.794,0 1.289,0.444 1.289,1.218 0,0.763 -0.453,1.238 -1.258,1.238"
             style="fill:#4f4c4d;fill-opacity:1;fill-rule:nonzero;stroke:none"
             id="path322" />
        </g>
        <g
           id="g324"
           transform="translate(473.8559,154.1481)">
          <path
             d="m 0,0 c -18.327,0 -33.202,-14.771 -33.377,-33.056 l 16.421,0.01 c -0.11,1.263 -0.029,2.201 0.002,3.592 0.255,11.427 9.708,20.692 21.138,20.692 11.428,0 20.692,-9.261 20.692,-20.692 0,-11.429 -10.063,-20.599 -21.638,-20.769 -1.592,-0.023 -1.693,-0.025 -3.091,0.036 L 0.138,-66.761 c 18.373,0.075 33.243,14.989 33.243,33.379 C 33.381,-14.946 18.437,0 0,0"
             style="fill:#12ab4a;fill-opacity:1;fill-rule:nonzero;stroke:none"
             id="path326" />
        </g>
      </g>
    </g>
    <path
       d="M 99.24197,69.082364 H 94.008159 V 63.848553 H 99.24197 Z"
       style="fill:#4f4c4d;fill-opacity:1;fill-rule:nonzero;stroke:none;stroke-width:0.352777"
       id="path328" />
  </g>
</svg>
