%TF.GenerationSoftware,KiCad,Pcbnew,5.1.9*%
%TF.CreationDate,2021-03-12T16:49:57+01:00*%
%TF.ProjectId,monkey-rpi-header-pcb,6d6f6e6b-6579-42d7-9270-692d68656164,rev?*%
%TF.SameCoordinates,Original*%
%TF.FileFunction,Soldermask,Top*%
%TF.FilePolarity,Negative*%
%FSLAX46Y46*%
G04 Gerber Fmt 4.6, Leading zero omitted, Abs format (unit mm)*
G04 Created by KiCad (PCBNEW 5.1.9) date 2021-03-12 16:49:57*
%MOMM*%
%LPD*%
G01*
G04 APERTURE LIST*
%ADD10R,0.750000X0.250000*%
%ADD11C,0.100000*%
%ADD12O,1.700000X1.700000*%
%ADD13R,1.700000X1.700000*%
%ADD14R,1.000000X1.500000*%
%ADD15O,1.600000X1.600000*%
%ADD16R,1.600000X1.600000*%
%ADD17C,0.600000*%
%ADD18R,2.600000X3.100000*%
%ADD19R,1.550000X0.600000*%
%ADD20R,0.510000X0.700000*%
%ADD21R,5.500000X1.430000*%
%ADD22O,3.600000X1.800000*%
%ADD23R,6.400000X5.800000*%
%ADD24R,2.200000X1.200000*%
%ADD25R,1.727200X1.727200*%
%ADD26O,1.727200X1.727200*%
%ADD27C,6.200000*%
G04 APERTURE END LIST*
%TO.C,C14*%
G36*
G01*
X172049600Y-123150000D02*
X173150400Y-123150000D01*
G75*
G02*
X173400000Y-123399600I0J-249600D01*
G01*
X173400000Y-126400400D01*
G75*
G02*
X173150400Y-126650000I-249600J0D01*
G01*
X172049600Y-126650000D01*
G75*
G02*
X171800000Y-126400400I0J249600D01*
G01*
X171800000Y-123399600D01*
G75*
G02*
X172049600Y-123150000I249600J0D01*
G01*
G37*
G36*
G01*
X172050000Y-117750000D02*
X173150000Y-117750000D01*
G75*
G02*
X173400000Y-118000000I0J-250000D01*
G01*
X173400000Y-121000000D01*
G75*
G02*
X173150000Y-121250000I-250000J0D01*
G01*
X172050000Y-121250000D01*
G75*
G02*
X171800000Y-121000000I0J250000D01*
G01*
X171800000Y-118000000D01*
G75*
G02*
X172050000Y-117750000I250000J0D01*
G01*
G37*
%TD*%
%TO.C,C13*%
G36*
G01*
X148549600Y-123150000D02*
X149650400Y-123150000D01*
G75*
G02*
X149900000Y-123399600I0J-249600D01*
G01*
X149900000Y-126400400D01*
G75*
G02*
X149650400Y-126650000I-249600J0D01*
G01*
X148549600Y-126650000D01*
G75*
G02*
X148300000Y-126400400I0J249600D01*
G01*
X148300000Y-123399600D01*
G75*
G02*
X148549600Y-123150000I249600J0D01*
G01*
G37*
G36*
G01*
X148550000Y-117750000D02*
X149650000Y-117750000D01*
G75*
G02*
X149900000Y-118000000I0J-250000D01*
G01*
X149900000Y-121000000D01*
G75*
G02*
X149650000Y-121250000I-250000J0D01*
G01*
X148550000Y-121250000D01*
G75*
G02*
X148300000Y-121000000I0J250000D01*
G01*
X148300000Y-118000000D01*
G75*
G02*
X148550000Y-117750000I250000J0D01*
G01*
G37*
%TD*%
%TO.C,D15*%
G36*
G01*
X151850000Y-71443750D02*
X151850000Y-71956250D01*
G75*
G02*
X151631250Y-72175000I-218750J0D01*
G01*
X151193750Y-72175000D01*
G75*
G02*
X150975000Y-71956250I0J218750D01*
G01*
X150975000Y-71443750D01*
G75*
G02*
X151193750Y-71225000I218750J0D01*
G01*
X151631250Y-71225000D01*
G75*
G02*
X151850000Y-71443750I0J-218750D01*
G01*
G37*
G36*
G01*
X153425000Y-71443750D02*
X153425000Y-71956250D01*
G75*
G02*
X153206250Y-72175000I-218750J0D01*
G01*
X152768750Y-72175000D01*
G75*
G02*
X152550000Y-71956250I0J218750D01*
G01*
X152550000Y-71443750D01*
G75*
G02*
X152768750Y-71225000I218750J0D01*
G01*
X153206250Y-71225000D01*
G75*
G02*
X153425000Y-71443750I0J-218750D01*
G01*
G37*
%TD*%
%TO.C,D14*%
G36*
G01*
X156150000Y-71956250D02*
X156150000Y-71443750D01*
G75*
G02*
X156368750Y-71225000I218750J0D01*
G01*
X156806250Y-71225000D01*
G75*
G02*
X157025000Y-71443750I0J-218750D01*
G01*
X157025000Y-71956250D01*
G75*
G02*
X156806250Y-72175000I-218750J0D01*
G01*
X156368750Y-72175000D01*
G75*
G02*
X156150000Y-71956250I0J218750D01*
G01*
G37*
G36*
G01*
X154575000Y-71956250D02*
X154575000Y-71443750D01*
G75*
G02*
X154793750Y-71225000I218750J0D01*
G01*
X155231250Y-71225000D01*
G75*
G02*
X155450000Y-71443750I0J-218750D01*
G01*
X155450000Y-71956250D01*
G75*
G02*
X155231250Y-72175000I-218750J0D01*
G01*
X154793750Y-72175000D01*
G75*
G02*
X154575000Y-71956250I0J218750D01*
G01*
G37*
%TD*%
D10*
%TO.C,U4*%
X150000000Y-75000000D03*
X150000000Y-74500000D03*
X150000000Y-74000000D03*
X150000000Y-73500000D03*
X153100000Y-73500000D03*
X153100000Y-74000000D03*
X153100000Y-74500000D03*
X153100000Y-75000000D03*
%TD*%
%TO.C,C16*%
G36*
G01*
X155450000Y-74575000D02*
X155450000Y-75075000D01*
G75*
G02*
X155225000Y-75300000I-225000J0D01*
G01*
X154775000Y-75300000D01*
G75*
G02*
X154550000Y-75075000I0J225000D01*
G01*
X154550000Y-74575000D01*
G75*
G02*
X154775000Y-74350000I225000J0D01*
G01*
X155225000Y-74350000D01*
G75*
G02*
X155450000Y-74575000I0J-225000D01*
G01*
G37*
G36*
G01*
X157000000Y-74575000D02*
X157000000Y-75075000D01*
G75*
G02*
X156775000Y-75300000I-225000J0D01*
G01*
X156325000Y-75300000D01*
G75*
G02*
X156100000Y-75075000I0J225000D01*
G01*
X156100000Y-74575000D01*
G75*
G02*
X156325000Y-74350000I225000J0D01*
G01*
X156775000Y-74350000D01*
G75*
G02*
X157000000Y-74575000I0J-225000D01*
G01*
G37*
%TD*%
%TO.C,C15*%
G36*
G01*
X147125000Y-74500000D02*
X147125000Y-75000000D01*
G75*
G02*
X146900000Y-75225000I-225000J0D01*
G01*
X146450000Y-75225000D01*
G75*
G02*
X146225000Y-75000000I0J225000D01*
G01*
X146225000Y-74500000D01*
G75*
G02*
X146450000Y-74275000I225000J0D01*
G01*
X146900000Y-74275000D01*
G75*
G02*
X147125000Y-74500000I0J-225000D01*
G01*
G37*
G36*
G01*
X148675000Y-74500000D02*
X148675000Y-75000000D01*
G75*
G02*
X148450000Y-75225000I-225000J0D01*
G01*
X148000000Y-75225000D01*
G75*
G02*
X147775000Y-75000000I0J225000D01*
G01*
X147775000Y-74500000D01*
G75*
G02*
X148000000Y-74275000I225000J0D01*
G01*
X148450000Y-74275000D01*
G75*
G02*
X148675000Y-74500000I0J-225000D01*
G01*
G37*
%TD*%
D11*
%TO.C,JP4*%
G36*
X162450602Y-120450000D02*
G01*
X162450602Y-120425466D01*
X162455412Y-120376635D01*
X162464984Y-120328510D01*
X162479228Y-120281555D01*
X162498005Y-120236222D01*
X162521136Y-120192949D01*
X162548396Y-120152150D01*
X162579524Y-120114221D01*
X162614221Y-120079524D01*
X162652150Y-120048396D01*
X162692949Y-120021136D01*
X162736222Y-119998005D01*
X162781555Y-119979228D01*
X162828510Y-119964984D01*
X162876635Y-119955412D01*
X162925466Y-119950602D01*
X162950000Y-119950602D01*
X162950000Y-119950000D01*
X163450000Y-119950000D01*
X163450000Y-119950602D01*
X163474534Y-119950602D01*
X163523365Y-119955412D01*
X163571490Y-119964984D01*
X163618445Y-119979228D01*
X163663778Y-119998005D01*
X163707051Y-120021136D01*
X163747850Y-120048396D01*
X163785779Y-120079524D01*
X163820476Y-120114221D01*
X163851604Y-120152150D01*
X163878864Y-120192949D01*
X163901995Y-120236222D01*
X163920772Y-120281555D01*
X163935016Y-120328510D01*
X163944588Y-120376635D01*
X163949398Y-120425466D01*
X163949398Y-120450000D01*
X163950000Y-120450000D01*
X163950000Y-120950000D01*
X162450000Y-120950000D01*
X162450000Y-120450000D01*
X162450602Y-120450000D01*
G37*
G36*
X163950000Y-121250000D02*
G01*
X163950000Y-121750000D01*
X163949398Y-121750000D01*
X163949398Y-121774534D01*
X163944588Y-121823365D01*
X163935016Y-121871490D01*
X163920772Y-121918445D01*
X163901995Y-121963778D01*
X163878864Y-122007051D01*
X163851604Y-122047850D01*
X163820476Y-122085779D01*
X163785779Y-122120476D01*
X163747850Y-122151604D01*
X163707051Y-122178864D01*
X163663778Y-122201995D01*
X163618445Y-122220772D01*
X163571490Y-122235016D01*
X163523365Y-122244588D01*
X163474534Y-122249398D01*
X163450000Y-122249398D01*
X163450000Y-122250000D01*
X162950000Y-122250000D01*
X162950000Y-122249398D01*
X162925466Y-122249398D01*
X162876635Y-122244588D01*
X162828510Y-122235016D01*
X162781555Y-122220772D01*
X162736222Y-122201995D01*
X162692949Y-122178864D01*
X162652150Y-122151604D01*
X162614221Y-122120476D01*
X162579524Y-122085779D01*
X162548396Y-122047850D01*
X162521136Y-122007051D01*
X162498005Y-121963778D01*
X162479228Y-121918445D01*
X162464984Y-121871490D01*
X162455412Y-121823365D01*
X162450602Y-121774534D01*
X162450602Y-121750000D01*
X162450000Y-121750000D01*
X162450000Y-121250000D01*
X163950000Y-121250000D01*
G37*
%TD*%
%TO.C,JP3*%
G36*
X139050602Y-120450000D02*
G01*
X139050602Y-120425466D01*
X139055412Y-120376635D01*
X139064984Y-120328510D01*
X139079228Y-120281555D01*
X139098005Y-120236222D01*
X139121136Y-120192949D01*
X139148396Y-120152150D01*
X139179524Y-120114221D01*
X139214221Y-120079524D01*
X139252150Y-120048396D01*
X139292949Y-120021136D01*
X139336222Y-119998005D01*
X139381555Y-119979228D01*
X139428510Y-119964984D01*
X139476635Y-119955412D01*
X139525466Y-119950602D01*
X139550000Y-119950602D01*
X139550000Y-119950000D01*
X140050000Y-119950000D01*
X140050000Y-119950602D01*
X140074534Y-119950602D01*
X140123365Y-119955412D01*
X140171490Y-119964984D01*
X140218445Y-119979228D01*
X140263778Y-119998005D01*
X140307051Y-120021136D01*
X140347850Y-120048396D01*
X140385779Y-120079524D01*
X140420476Y-120114221D01*
X140451604Y-120152150D01*
X140478864Y-120192949D01*
X140501995Y-120236222D01*
X140520772Y-120281555D01*
X140535016Y-120328510D01*
X140544588Y-120376635D01*
X140549398Y-120425466D01*
X140549398Y-120450000D01*
X140550000Y-120450000D01*
X140550000Y-120950000D01*
X139050000Y-120950000D01*
X139050000Y-120450000D01*
X139050602Y-120450000D01*
G37*
G36*
X140550000Y-121250000D02*
G01*
X140550000Y-121750000D01*
X140549398Y-121750000D01*
X140549398Y-121774534D01*
X140544588Y-121823365D01*
X140535016Y-121871490D01*
X140520772Y-121918445D01*
X140501995Y-121963778D01*
X140478864Y-122007051D01*
X140451604Y-122047850D01*
X140420476Y-122085779D01*
X140385779Y-122120476D01*
X140347850Y-122151604D01*
X140307051Y-122178864D01*
X140263778Y-122201995D01*
X140218445Y-122220772D01*
X140171490Y-122235016D01*
X140123365Y-122244588D01*
X140074534Y-122249398D01*
X140050000Y-122249398D01*
X140050000Y-122250000D01*
X139550000Y-122250000D01*
X139550000Y-122249398D01*
X139525466Y-122249398D01*
X139476635Y-122244588D01*
X139428510Y-122235016D01*
X139381555Y-122220772D01*
X139336222Y-122201995D01*
X139292949Y-122178864D01*
X139252150Y-122151604D01*
X139214221Y-122120476D01*
X139179524Y-122085779D01*
X139148396Y-122047850D01*
X139121136Y-122007051D01*
X139098005Y-121963778D01*
X139079228Y-121918445D01*
X139064984Y-121871490D01*
X139055412Y-121823365D01*
X139050602Y-121774534D01*
X139050602Y-121750000D01*
X139050000Y-121750000D01*
X139050000Y-121250000D01*
X140550000Y-121250000D01*
G37*
%TD*%
%TO.C,JP2*%
G36*
X165050602Y-120450000D02*
G01*
X165050602Y-120425466D01*
X165055412Y-120376635D01*
X165064984Y-120328510D01*
X165079228Y-120281555D01*
X165098005Y-120236222D01*
X165121136Y-120192949D01*
X165148396Y-120152150D01*
X165179524Y-120114221D01*
X165214221Y-120079524D01*
X165252150Y-120048396D01*
X165292949Y-120021136D01*
X165336222Y-119998005D01*
X165381555Y-119979228D01*
X165428510Y-119964984D01*
X165476635Y-119955412D01*
X165525466Y-119950602D01*
X165550000Y-119950602D01*
X165550000Y-119950000D01*
X166050000Y-119950000D01*
X166050000Y-119950602D01*
X166074534Y-119950602D01*
X166123365Y-119955412D01*
X166171490Y-119964984D01*
X166218445Y-119979228D01*
X166263778Y-119998005D01*
X166307051Y-120021136D01*
X166347850Y-120048396D01*
X166385779Y-120079524D01*
X166420476Y-120114221D01*
X166451604Y-120152150D01*
X166478864Y-120192949D01*
X166501995Y-120236222D01*
X166520772Y-120281555D01*
X166535016Y-120328510D01*
X166544588Y-120376635D01*
X166549398Y-120425466D01*
X166549398Y-120450000D01*
X166550000Y-120450000D01*
X166550000Y-120950000D01*
X165050000Y-120950000D01*
X165050000Y-120450000D01*
X165050602Y-120450000D01*
G37*
G36*
X166550000Y-121250000D02*
G01*
X166550000Y-121750000D01*
X166549398Y-121750000D01*
X166549398Y-121774534D01*
X166544588Y-121823365D01*
X166535016Y-121871490D01*
X166520772Y-121918445D01*
X166501995Y-121963778D01*
X166478864Y-122007051D01*
X166451604Y-122047850D01*
X166420476Y-122085779D01*
X166385779Y-122120476D01*
X166347850Y-122151604D01*
X166307051Y-122178864D01*
X166263778Y-122201995D01*
X166218445Y-122220772D01*
X166171490Y-122235016D01*
X166123365Y-122244588D01*
X166074534Y-122249398D01*
X166050000Y-122249398D01*
X166050000Y-122250000D01*
X165550000Y-122250000D01*
X165550000Y-122249398D01*
X165525466Y-122249398D01*
X165476635Y-122244588D01*
X165428510Y-122235016D01*
X165381555Y-122220772D01*
X165336222Y-122201995D01*
X165292949Y-122178864D01*
X165252150Y-122151604D01*
X165214221Y-122120476D01*
X165179524Y-122085779D01*
X165148396Y-122047850D01*
X165121136Y-122007051D01*
X165098005Y-121963778D01*
X165079228Y-121918445D01*
X165064984Y-121871490D01*
X165055412Y-121823365D01*
X165050602Y-121774534D01*
X165050602Y-121750000D01*
X165050000Y-121750000D01*
X165050000Y-121250000D01*
X166550000Y-121250000D01*
G37*
%TD*%
%TO.C,JP1*%
G36*
X141650602Y-120450000D02*
G01*
X141650602Y-120425466D01*
X141655412Y-120376635D01*
X141664984Y-120328510D01*
X141679228Y-120281555D01*
X141698005Y-120236222D01*
X141721136Y-120192949D01*
X141748396Y-120152150D01*
X141779524Y-120114221D01*
X141814221Y-120079524D01*
X141852150Y-120048396D01*
X141892949Y-120021136D01*
X141936222Y-119998005D01*
X141981555Y-119979228D01*
X142028510Y-119964984D01*
X142076635Y-119955412D01*
X142125466Y-119950602D01*
X142150000Y-119950602D01*
X142150000Y-119950000D01*
X142650000Y-119950000D01*
X142650000Y-119950602D01*
X142674534Y-119950602D01*
X142723365Y-119955412D01*
X142771490Y-119964984D01*
X142818445Y-119979228D01*
X142863778Y-119998005D01*
X142907051Y-120021136D01*
X142947850Y-120048396D01*
X142985779Y-120079524D01*
X143020476Y-120114221D01*
X143051604Y-120152150D01*
X143078864Y-120192949D01*
X143101995Y-120236222D01*
X143120772Y-120281555D01*
X143135016Y-120328510D01*
X143144588Y-120376635D01*
X143149398Y-120425466D01*
X143149398Y-120450000D01*
X143150000Y-120450000D01*
X143150000Y-120950000D01*
X141650000Y-120950000D01*
X141650000Y-120450000D01*
X141650602Y-120450000D01*
G37*
G36*
X143150000Y-121250000D02*
G01*
X143150000Y-121750000D01*
X143149398Y-121750000D01*
X143149398Y-121774534D01*
X143144588Y-121823365D01*
X143135016Y-121871490D01*
X143120772Y-121918445D01*
X143101995Y-121963778D01*
X143078864Y-122007051D01*
X143051604Y-122047850D01*
X143020476Y-122085779D01*
X142985779Y-122120476D01*
X142947850Y-122151604D01*
X142907051Y-122178864D01*
X142863778Y-122201995D01*
X142818445Y-122220772D01*
X142771490Y-122235016D01*
X142723365Y-122244588D01*
X142674534Y-122249398D01*
X142650000Y-122249398D01*
X142650000Y-122250000D01*
X142150000Y-122250000D01*
X142150000Y-122249398D01*
X142125466Y-122249398D01*
X142076635Y-122244588D01*
X142028510Y-122235016D01*
X141981555Y-122220772D01*
X141936222Y-122201995D01*
X141892949Y-122178864D01*
X141852150Y-122151604D01*
X141814221Y-122120476D01*
X141779524Y-122085779D01*
X141748396Y-122047850D01*
X141721136Y-122007051D01*
X141698005Y-121963778D01*
X141679228Y-121918445D01*
X141664984Y-121871490D01*
X141655412Y-121823365D01*
X141650602Y-121774534D01*
X141650602Y-121750000D01*
X141650000Y-121750000D01*
X141650000Y-121250000D01*
X143150000Y-121250000D01*
G37*
%TD*%
%TO.C,R26*%
G36*
G01*
X167850001Y-112000000D02*
X166949999Y-112000000D01*
G75*
G02*
X166700000Y-111750001I0J249999D01*
G01*
X166700000Y-111224999D01*
G75*
G02*
X166949999Y-110975000I249999J0D01*
G01*
X167850001Y-110975000D01*
G75*
G02*
X168100000Y-111224999I0J-249999D01*
G01*
X168100000Y-111750001D01*
G75*
G02*
X167850001Y-112000000I-249999J0D01*
G01*
G37*
G36*
G01*
X167850001Y-113825000D02*
X166949999Y-113825000D01*
G75*
G02*
X166700000Y-113575001I0J249999D01*
G01*
X166700000Y-113049999D01*
G75*
G02*
X166949999Y-112800000I249999J0D01*
G01*
X167850001Y-112800000D01*
G75*
G02*
X168100000Y-113049999I0J-249999D01*
G01*
X168100000Y-113575001D01*
G75*
G02*
X167850001Y-113825000I-249999J0D01*
G01*
G37*
%TD*%
%TO.C,R25*%
G36*
G01*
X164750001Y-112000000D02*
X163849999Y-112000000D01*
G75*
G02*
X163600000Y-111750001I0J249999D01*
G01*
X163600000Y-111224999D01*
G75*
G02*
X163849999Y-110975000I249999J0D01*
G01*
X164750001Y-110975000D01*
G75*
G02*
X165000000Y-111224999I0J-249999D01*
G01*
X165000000Y-111750001D01*
G75*
G02*
X164750001Y-112000000I-249999J0D01*
G01*
G37*
G36*
G01*
X164750001Y-113825000D02*
X163849999Y-113825000D01*
G75*
G02*
X163600000Y-113575001I0J249999D01*
G01*
X163600000Y-113049999D01*
G75*
G02*
X163849999Y-112800000I249999J0D01*
G01*
X164750001Y-112800000D01*
G75*
G02*
X165000000Y-113049999I0J-249999D01*
G01*
X165000000Y-113575001D01*
G75*
G02*
X164750001Y-113825000I-249999J0D01*
G01*
G37*
%TD*%
%TO.C,R31*%
G36*
G01*
X165812500Y-93849999D02*
X165812500Y-94750001D01*
G75*
G02*
X165562501Y-95000000I-249999J0D01*
G01*
X165037499Y-95000000D01*
G75*
G02*
X164787500Y-94750001I0J249999D01*
G01*
X164787500Y-93849999D01*
G75*
G02*
X165037499Y-93600000I249999J0D01*
G01*
X165562501Y-93600000D01*
G75*
G02*
X165812500Y-93849999I0J-249999D01*
G01*
G37*
G36*
G01*
X167637500Y-93849999D02*
X167637500Y-94750001D01*
G75*
G02*
X167387501Y-95000000I-249999J0D01*
G01*
X166862499Y-95000000D01*
G75*
G02*
X166612500Y-94750001I0J249999D01*
G01*
X166612500Y-93849999D01*
G75*
G02*
X166862499Y-93600000I249999J0D01*
G01*
X167387501Y-93600000D01*
G75*
G02*
X167637500Y-93849999I0J-249999D01*
G01*
G37*
%TD*%
%TO.C,JP9*%
G36*
X157250000Y-120950000D02*
G01*
X157250000Y-120450000D01*
X157250602Y-120450000D01*
X157250602Y-120425466D01*
X157255412Y-120376635D01*
X157264984Y-120328510D01*
X157279228Y-120281555D01*
X157298005Y-120236222D01*
X157321136Y-120192949D01*
X157348396Y-120152150D01*
X157379524Y-120114221D01*
X157414221Y-120079524D01*
X157452150Y-120048396D01*
X157492949Y-120021136D01*
X157536222Y-119998005D01*
X157581555Y-119979228D01*
X157628510Y-119964984D01*
X157676635Y-119955412D01*
X157725466Y-119950602D01*
X157750000Y-119950602D01*
X157750000Y-119950000D01*
X158250000Y-119950000D01*
X158250000Y-119950602D01*
X158274534Y-119950602D01*
X158323365Y-119955412D01*
X158371490Y-119964984D01*
X158418445Y-119979228D01*
X158463778Y-119998005D01*
X158507051Y-120021136D01*
X158547850Y-120048396D01*
X158585779Y-120079524D01*
X158620476Y-120114221D01*
X158651604Y-120152150D01*
X158678864Y-120192949D01*
X158701995Y-120236222D01*
X158720772Y-120281555D01*
X158735016Y-120328510D01*
X158744588Y-120376635D01*
X158749398Y-120425466D01*
X158749398Y-120450000D01*
X158750000Y-120450000D01*
X158750000Y-120950000D01*
X157250000Y-120950000D01*
G37*
G36*
X158749398Y-121750000D02*
G01*
X158749398Y-121774534D01*
X158744588Y-121823365D01*
X158735016Y-121871490D01*
X158720772Y-121918445D01*
X158701995Y-121963778D01*
X158678864Y-122007051D01*
X158651604Y-122047850D01*
X158620476Y-122085779D01*
X158585779Y-122120476D01*
X158547850Y-122151604D01*
X158507051Y-122178864D01*
X158463778Y-122201995D01*
X158418445Y-122220772D01*
X158371490Y-122235016D01*
X158323365Y-122244588D01*
X158274534Y-122249398D01*
X158250000Y-122249398D01*
X158250000Y-122250000D01*
X157750000Y-122250000D01*
X157750000Y-122249398D01*
X157725466Y-122249398D01*
X157676635Y-122244588D01*
X157628510Y-122235016D01*
X157581555Y-122220772D01*
X157536222Y-122201995D01*
X157492949Y-122178864D01*
X157452150Y-122151604D01*
X157414221Y-122120476D01*
X157379524Y-122085779D01*
X157348396Y-122047850D01*
X157321136Y-122007051D01*
X157298005Y-121963778D01*
X157279228Y-121918445D01*
X157264984Y-121871490D01*
X157255412Y-121823365D01*
X157250602Y-121774534D01*
X157250602Y-121750000D01*
X157250000Y-121750000D01*
X157250000Y-121250000D01*
X158750000Y-121250000D01*
X158750000Y-121750000D01*
X158749398Y-121750000D01*
G37*
%TD*%
%TO.C,JP8*%
G36*
X133850000Y-120950000D02*
G01*
X133850000Y-120450000D01*
X133850602Y-120450000D01*
X133850602Y-120425466D01*
X133855412Y-120376635D01*
X133864984Y-120328510D01*
X133879228Y-120281555D01*
X133898005Y-120236222D01*
X133921136Y-120192949D01*
X133948396Y-120152150D01*
X133979524Y-120114221D01*
X134014221Y-120079524D01*
X134052150Y-120048396D01*
X134092949Y-120021136D01*
X134136222Y-119998005D01*
X134181555Y-119979228D01*
X134228510Y-119964984D01*
X134276635Y-119955412D01*
X134325466Y-119950602D01*
X134350000Y-119950602D01*
X134350000Y-119950000D01*
X134850000Y-119950000D01*
X134850000Y-119950602D01*
X134874534Y-119950602D01*
X134923365Y-119955412D01*
X134971490Y-119964984D01*
X135018445Y-119979228D01*
X135063778Y-119998005D01*
X135107051Y-120021136D01*
X135147850Y-120048396D01*
X135185779Y-120079524D01*
X135220476Y-120114221D01*
X135251604Y-120152150D01*
X135278864Y-120192949D01*
X135301995Y-120236222D01*
X135320772Y-120281555D01*
X135335016Y-120328510D01*
X135344588Y-120376635D01*
X135349398Y-120425466D01*
X135349398Y-120450000D01*
X135350000Y-120450000D01*
X135350000Y-120950000D01*
X133850000Y-120950000D01*
G37*
G36*
X135349398Y-121750000D02*
G01*
X135349398Y-121774534D01*
X135344588Y-121823365D01*
X135335016Y-121871490D01*
X135320772Y-121918445D01*
X135301995Y-121963778D01*
X135278864Y-122007051D01*
X135251604Y-122047850D01*
X135220476Y-122085779D01*
X135185779Y-122120476D01*
X135147850Y-122151604D01*
X135107051Y-122178864D01*
X135063778Y-122201995D01*
X135018445Y-122220772D01*
X134971490Y-122235016D01*
X134923365Y-122244588D01*
X134874534Y-122249398D01*
X134850000Y-122249398D01*
X134850000Y-122250000D01*
X134350000Y-122250000D01*
X134350000Y-122249398D01*
X134325466Y-122249398D01*
X134276635Y-122244588D01*
X134228510Y-122235016D01*
X134181555Y-122220772D01*
X134136222Y-122201995D01*
X134092949Y-122178864D01*
X134052150Y-122151604D01*
X134014221Y-122120476D01*
X133979524Y-122085779D01*
X133948396Y-122047850D01*
X133921136Y-122007051D01*
X133898005Y-121963778D01*
X133879228Y-121918445D01*
X133864984Y-121871490D01*
X133855412Y-121823365D01*
X133850602Y-121774534D01*
X133850602Y-121750000D01*
X133850000Y-121750000D01*
X133850000Y-121250000D01*
X135350000Y-121250000D01*
X135350000Y-121750000D01*
X135349398Y-121750000D01*
G37*
%TD*%
D12*
%TO.C,J27*%
X185500000Y-84000000D03*
D13*
X185500000Y-86540000D03*
%TD*%
D12*
%TO.C,J26*%
X181000000Y-84000000D03*
D13*
X181000000Y-86540000D03*
%TD*%
D12*
%TO.C,J25*%
X176500000Y-84000000D03*
D13*
X176500000Y-86540000D03*
%TD*%
D12*
%TO.C,J24*%
X172000000Y-84000000D03*
D13*
X172000000Y-86540000D03*
%TD*%
D12*
%TO.C,J23*%
X182750000Y-66670000D03*
X182750000Y-69210000D03*
D13*
X182750000Y-71750000D03*
%TD*%
D12*
%TO.C,J22*%
X176750000Y-66670000D03*
X176750000Y-69210000D03*
D13*
X176750000Y-71750000D03*
%TD*%
D12*
%TO.C,J18*%
X170750000Y-66670000D03*
X170750000Y-69210000D03*
D13*
X170750000Y-71750000D03*
%TD*%
D12*
%TO.C,J5*%
X164250000Y-66670000D03*
X164250000Y-69210000D03*
D13*
X164250000Y-71750000D03*
%TD*%
%TO.C,D25*%
G36*
G01*
X166712500Y-92456250D02*
X166712500Y-91543750D01*
G75*
G02*
X166956250Y-91300000I243750J0D01*
G01*
X167443750Y-91300000D01*
G75*
G02*
X167687500Y-91543750I0J-243750D01*
G01*
X167687500Y-92456250D01*
G75*
G02*
X167443750Y-92700000I-243750J0D01*
G01*
X166956250Y-92700000D01*
G75*
G02*
X166712500Y-92456250I0J243750D01*
G01*
G37*
G36*
G01*
X164837500Y-92456250D02*
X164837500Y-91543750D01*
G75*
G02*
X165081250Y-91300000I243750J0D01*
G01*
X165568750Y-91300000D01*
G75*
G02*
X165812500Y-91543750I0J-243750D01*
G01*
X165812500Y-92456250D01*
G75*
G02*
X165568750Y-92700000I-243750J0D01*
G01*
X165081250Y-92700000D01*
G75*
G02*
X164837500Y-92456250I0J243750D01*
G01*
G37*
%TD*%
%TO.C,D22*%
G36*
G01*
X179837500Y-104056250D02*
X179837500Y-103543750D01*
G75*
G02*
X180056250Y-103325000I218750J0D01*
G01*
X180493750Y-103325000D01*
G75*
G02*
X180712500Y-103543750I0J-218750D01*
G01*
X180712500Y-104056250D01*
G75*
G02*
X180493750Y-104275000I-218750J0D01*
G01*
X180056250Y-104275000D01*
G75*
G02*
X179837500Y-104056250I0J218750D01*
G01*
G37*
G36*
G01*
X178262500Y-104056250D02*
X178262500Y-103543750D01*
G75*
G02*
X178481250Y-103325000I218750J0D01*
G01*
X178918750Y-103325000D01*
G75*
G02*
X179137500Y-103543750I0J-218750D01*
G01*
X179137500Y-104056250D01*
G75*
G02*
X178918750Y-104275000I-218750J0D01*
G01*
X178481250Y-104275000D01*
G75*
G02*
X178262500Y-104056250I0J218750D01*
G01*
G37*
%TD*%
%TO.C,D21*%
G36*
G01*
X183162500Y-103543750D02*
X183162500Y-104056250D01*
G75*
G02*
X182943750Y-104275000I-218750J0D01*
G01*
X182506250Y-104275000D01*
G75*
G02*
X182287500Y-104056250I0J218750D01*
G01*
X182287500Y-103543750D01*
G75*
G02*
X182506250Y-103325000I218750J0D01*
G01*
X182943750Y-103325000D01*
G75*
G02*
X183162500Y-103543750I0J-218750D01*
G01*
G37*
G36*
G01*
X184737500Y-103543750D02*
X184737500Y-104056250D01*
G75*
G02*
X184518750Y-104275000I-218750J0D01*
G01*
X184081250Y-104275000D01*
G75*
G02*
X183862500Y-104056250I0J218750D01*
G01*
X183862500Y-103543750D01*
G75*
G02*
X184081250Y-103325000I218750J0D01*
G01*
X184518750Y-103325000D01*
G75*
G02*
X184737500Y-103543750I0J-218750D01*
G01*
G37*
%TD*%
%TO.C,D20*%
G36*
G01*
X180837500Y-101956250D02*
X180837500Y-101443750D01*
G75*
G02*
X181056250Y-101225000I218750J0D01*
G01*
X181493750Y-101225000D01*
G75*
G02*
X181712500Y-101443750I0J-218750D01*
G01*
X181712500Y-101956250D01*
G75*
G02*
X181493750Y-102175000I-218750J0D01*
G01*
X181056250Y-102175000D01*
G75*
G02*
X180837500Y-101956250I0J218750D01*
G01*
G37*
G36*
G01*
X179262500Y-101956250D02*
X179262500Y-101443750D01*
G75*
G02*
X179481250Y-101225000I218750J0D01*
G01*
X179918750Y-101225000D01*
G75*
G02*
X180137500Y-101443750I0J-218750D01*
G01*
X180137500Y-101956250D01*
G75*
G02*
X179918750Y-102175000I-218750J0D01*
G01*
X179481250Y-102175000D01*
G75*
G02*
X179262500Y-101956250I0J218750D01*
G01*
G37*
%TD*%
%TO.C,D13*%
G36*
G01*
X137812500Y-75006250D02*
X137812500Y-74493750D01*
G75*
G02*
X138031250Y-74275000I218750J0D01*
G01*
X138468750Y-74275000D01*
G75*
G02*
X138687500Y-74493750I0J-218750D01*
G01*
X138687500Y-75006250D01*
G75*
G02*
X138468750Y-75225000I-218750J0D01*
G01*
X138031250Y-75225000D01*
G75*
G02*
X137812500Y-75006250I0J218750D01*
G01*
G37*
G36*
G01*
X139387500Y-75006250D02*
X139387500Y-74493750D01*
G75*
G02*
X139606250Y-74275000I218750J0D01*
G01*
X140043750Y-74275000D01*
G75*
G02*
X140262500Y-74493750I0J-218750D01*
G01*
X140262500Y-75006250D01*
G75*
G02*
X140043750Y-75225000I-218750J0D01*
G01*
X139606250Y-75225000D01*
G75*
G02*
X139387500Y-75006250I0J218750D01*
G01*
G37*
%TD*%
%TO.C,D12*%
G36*
G01*
X184137500Y-101443750D02*
X184137500Y-101956250D01*
G75*
G02*
X183918750Y-102175000I-218750J0D01*
G01*
X183481250Y-102175000D01*
G75*
G02*
X183262500Y-101956250I0J218750D01*
G01*
X183262500Y-101443750D01*
G75*
G02*
X183481250Y-101225000I218750J0D01*
G01*
X183918750Y-101225000D01*
G75*
G02*
X184137500Y-101443750I0J-218750D01*
G01*
G37*
G36*
G01*
X185712500Y-101443750D02*
X185712500Y-101956250D01*
G75*
G02*
X185493750Y-102175000I-218750J0D01*
G01*
X185056250Y-102175000D01*
G75*
G02*
X184837500Y-101956250I0J218750D01*
G01*
X184837500Y-101443750D01*
G75*
G02*
X185056250Y-101225000I218750J0D01*
G01*
X185493750Y-101225000D01*
G75*
G02*
X185712500Y-101443750I0J-218750D01*
G01*
G37*
%TD*%
%TO.C,D11*%
G36*
G01*
X143887500Y-75006250D02*
X143887500Y-74493750D01*
G75*
G02*
X144106250Y-74275000I218750J0D01*
G01*
X144543750Y-74275000D01*
G75*
G02*
X144762500Y-74493750I0J-218750D01*
G01*
X144762500Y-75006250D01*
G75*
G02*
X144543750Y-75225000I-218750J0D01*
G01*
X144106250Y-75225000D01*
G75*
G02*
X143887500Y-75006250I0J218750D01*
G01*
G37*
G36*
G01*
X142312500Y-75006250D02*
X142312500Y-74493750D01*
G75*
G02*
X142531250Y-74275000I218750J0D01*
G01*
X142968750Y-74275000D01*
G75*
G02*
X143187500Y-74493750I0J-218750D01*
G01*
X143187500Y-75006250D01*
G75*
G02*
X142968750Y-75225000I-218750J0D01*
G01*
X142531250Y-75225000D01*
G75*
G02*
X142312500Y-75006250I0J218750D01*
G01*
G37*
%TD*%
%TO.C,D4*%
G36*
G01*
X161275000Y-72393750D02*
X161275000Y-72906250D01*
G75*
G02*
X161056250Y-73125000I-218750J0D01*
G01*
X160618750Y-73125000D01*
G75*
G02*
X160400000Y-72906250I0J218750D01*
G01*
X160400000Y-72393750D01*
G75*
G02*
X160618750Y-72175000I218750J0D01*
G01*
X161056250Y-72175000D01*
G75*
G02*
X161275000Y-72393750I0J-218750D01*
G01*
G37*
G36*
G01*
X159700000Y-72393750D02*
X159700000Y-72906250D01*
G75*
G02*
X159481250Y-73125000I-218750J0D01*
G01*
X159043750Y-73125000D01*
G75*
G02*
X158825000Y-72906250I0J218750D01*
G01*
X158825000Y-72393750D01*
G75*
G02*
X159043750Y-72175000I218750J0D01*
G01*
X159481250Y-72175000D01*
G75*
G02*
X159700000Y-72393750I0J-218750D01*
G01*
G37*
%TD*%
%TO.C,D3*%
G36*
G01*
X153750000Y-106143750D02*
X153750000Y-106656250D01*
G75*
G02*
X153531250Y-106875000I-218750J0D01*
G01*
X153093750Y-106875000D01*
G75*
G02*
X152875000Y-106656250I0J218750D01*
G01*
X152875000Y-106143750D01*
G75*
G02*
X153093750Y-105925000I218750J0D01*
G01*
X153531250Y-105925000D01*
G75*
G02*
X153750000Y-106143750I0J-218750D01*
G01*
G37*
G36*
G01*
X155325000Y-106143750D02*
X155325000Y-106656250D01*
G75*
G02*
X155106250Y-106875000I-218750J0D01*
G01*
X154668750Y-106875000D01*
G75*
G02*
X154450000Y-106656250I0J218750D01*
G01*
X154450000Y-106143750D01*
G75*
G02*
X154668750Y-105925000I218750J0D01*
G01*
X155106250Y-105925000D01*
G75*
G02*
X155325000Y-106143750I0J-218750D01*
G01*
G37*
%TD*%
%TO.C,D2*%
G36*
G01*
X134956250Y-98537500D02*
X134443750Y-98537500D01*
G75*
G02*
X134225000Y-98318750I0J218750D01*
G01*
X134225000Y-97881250D01*
G75*
G02*
X134443750Y-97662500I218750J0D01*
G01*
X134956250Y-97662500D01*
G75*
G02*
X135175000Y-97881250I0J-218750D01*
G01*
X135175000Y-98318750D01*
G75*
G02*
X134956250Y-98537500I-218750J0D01*
G01*
G37*
G36*
G01*
X134956250Y-100112500D02*
X134443750Y-100112500D01*
G75*
G02*
X134225000Y-99893750I0J218750D01*
G01*
X134225000Y-99456250D01*
G75*
G02*
X134443750Y-99237500I218750J0D01*
G01*
X134956250Y-99237500D01*
G75*
G02*
X135175000Y-99456250I0J-218750D01*
G01*
X135175000Y-99893750D01*
G75*
G02*
X134956250Y-100112500I-218750J0D01*
G01*
G37*
%TD*%
%TO.C,R30*%
G36*
G01*
X157000000Y-83475000D02*
X157000000Y-82925000D01*
G75*
G02*
X157200000Y-82725000I200000J0D01*
G01*
X157600000Y-82725000D01*
G75*
G02*
X157800000Y-82925000I0J-200000D01*
G01*
X157800000Y-83475000D01*
G75*
G02*
X157600000Y-83675000I-200000J0D01*
G01*
X157200000Y-83675000D01*
G75*
G02*
X157000000Y-83475000I0J200000D01*
G01*
G37*
G36*
G01*
X155350000Y-83475000D02*
X155350000Y-82925000D01*
G75*
G02*
X155550000Y-82725000I200000J0D01*
G01*
X155950000Y-82725000D01*
G75*
G02*
X156150000Y-82925000I0J-200000D01*
G01*
X156150000Y-83475000D01*
G75*
G02*
X155950000Y-83675000I-200000J0D01*
G01*
X155550000Y-83675000D01*
G75*
G02*
X155350000Y-83475000I0J200000D01*
G01*
G37*
%TD*%
%TO.C,R29*%
G36*
G01*
X146825000Y-83475000D02*
X146825000Y-82925000D01*
G75*
G02*
X147025000Y-82725000I200000J0D01*
G01*
X147425000Y-82725000D01*
G75*
G02*
X147625000Y-82925000I0J-200000D01*
G01*
X147625000Y-83475000D01*
G75*
G02*
X147425000Y-83675000I-200000J0D01*
G01*
X147025000Y-83675000D01*
G75*
G02*
X146825000Y-83475000I0J200000D01*
G01*
G37*
G36*
G01*
X145175000Y-83475000D02*
X145175000Y-82925000D01*
G75*
G02*
X145375000Y-82725000I200000J0D01*
G01*
X145775000Y-82725000D01*
G75*
G02*
X145975000Y-82925000I0J-200000D01*
G01*
X145975000Y-83475000D01*
G75*
G02*
X145775000Y-83675000I-200000J0D01*
G01*
X145375000Y-83675000D01*
G75*
G02*
X145175000Y-83475000I0J200000D01*
G01*
G37*
%TD*%
%TO.C,R28*%
G36*
G01*
X153600000Y-83475000D02*
X153600000Y-82925000D01*
G75*
G02*
X153800000Y-82725000I200000J0D01*
G01*
X154200000Y-82725000D01*
G75*
G02*
X154400000Y-82925000I0J-200000D01*
G01*
X154400000Y-83475000D01*
G75*
G02*
X154200000Y-83675000I-200000J0D01*
G01*
X153800000Y-83675000D01*
G75*
G02*
X153600000Y-83475000I0J200000D01*
G01*
G37*
G36*
G01*
X151950000Y-83475000D02*
X151950000Y-82925000D01*
G75*
G02*
X152150000Y-82725000I200000J0D01*
G01*
X152550000Y-82725000D01*
G75*
G02*
X152750000Y-82925000I0J-200000D01*
G01*
X152750000Y-83475000D01*
G75*
G02*
X152550000Y-83675000I-200000J0D01*
G01*
X152150000Y-83675000D01*
G75*
G02*
X151950000Y-83475000I0J200000D01*
G01*
G37*
%TD*%
%TO.C,R27*%
G36*
G01*
X143400000Y-83475000D02*
X143400000Y-82925000D01*
G75*
G02*
X143600000Y-82725000I200000J0D01*
G01*
X144000000Y-82725000D01*
G75*
G02*
X144200000Y-82925000I0J-200000D01*
G01*
X144200000Y-83475000D01*
G75*
G02*
X144000000Y-83675000I-200000J0D01*
G01*
X143600000Y-83675000D01*
G75*
G02*
X143400000Y-83475000I0J200000D01*
G01*
G37*
G36*
G01*
X141750000Y-83475000D02*
X141750000Y-82925000D01*
G75*
G02*
X141950000Y-82725000I200000J0D01*
G01*
X142350000Y-82725000D01*
G75*
G02*
X142550000Y-82925000I0J-200000D01*
G01*
X142550000Y-83475000D01*
G75*
G02*
X142350000Y-83675000I-200000J0D01*
G01*
X141950000Y-83675000D01*
G75*
G02*
X141750000Y-83475000I0J200000D01*
G01*
G37*
%TD*%
%TO.C,R24*%
G36*
G01*
X160425000Y-83475000D02*
X160425000Y-82925000D01*
G75*
G02*
X160625000Y-82725000I200000J0D01*
G01*
X161025000Y-82725000D01*
G75*
G02*
X161225000Y-82925000I0J-200000D01*
G01*
X161225000Y-83475000D01*
G75*
G02*
X161025000Y-83675000I-200000J0D01*
G01*
X160625000Y-83675000D01*
G75*
G02*
X160425000Y-83475000I0J200000D01*
G01*
G37*
G36*
G01*
X158775000Y-83475000D02*
X158775000Y-82925000D01*
G75*
G02*
X158975000Y-82725000I200000J0D01*
G01*
X159375000Y-82725000D01*
G75*
G02*
X159575000Y-82925000I0J-200000D01*
G01*
X159575000Y-83475000D01*
G75*
G02*
X159375000Y-83675000I-200000J0D01*
G01*
X158975000Y-83675000D01*
G75*
G02*
X158775000Y-83475000I0J200000D01*
G01*
G37*
%TD*%
%TO.C,R23*%
G36*
G01*
X150225000Y-83475000D02*
X150225000Y-82925000D01*
G75*
G02*
X150425000Y-82725000I200000J0D01*
G01*
X150825000Y-82725000D01*
G75*
G02*
X151025000Y-82925000I0J-200000D01*
G01*
X151025000Y-83475000D01*
G75*
G02*
X150825000Y-83675000I-200000J0D01*
G01*
X150425000Y-83675000D01*
G75*
G02*
X150225000Y-83475000I0J200000D01*
G01*
G37*
G36*
G01*
X148575000Y-83475000D02*
X148575000Y-82925000D01*
G75*
G02*
X148775000Y-82725000I200000J0D01*
G01*
X149175000Y-82725000D01*
G75*
G02*
X149375000Y-82925000I0J-200000D01*
G01*
X149375000Y-83475000D01*
G75*
G02*
X149175000Y-83675000I-200000J0D01*
G01*
X148775000Y-83675000D01*
G75*
G02*
X148575000Y-83475000I0J200000D01*
G01*
G37*
%TD*%
D11*
%TO.C,JP7*%
G36*
X167750000Y-82750000D02*
G01*
X168300000Y-82750000D01*
X168300000Y-82750602D01*
X168324534Y-82750602D01*
X168373365Y-82755412D01*
X168421490Y-82764984D01*
X168468445Y-82779228D01*
X168513778Y-82798005D01*
X168557051Y-82821136D01*
X168597850Y-82848396D01*
X168635779Y-82879524D01*
X168670476Y-82914221D01*
X168701604Y-82952150D01*
X168728864Y-82992949D01*
X168751995Y-83036222D01*
X168770772Y-83081555D01*
X168785016Y-83128510D01*
X168794588Y-83176635D01*
X168799398Y-83225466D01*
X168799398Y-83250000D01*
X168800000Y-83250000D01*
X168800000Y-83750000D01*
X168799398Y-83750000D01*
X168799398Y-83774534D01*
X168794588Y-83823365D01*
X168785016Y-83871490D01*
X168770772Y-83918445D01*
X168751995Y-83963778D01*
X168728864Y-84007051D01*
X168701604Y-84047850D01*
X168670476Y-84085779D01*
X168635779Y-84120476D01*
X168597850Y-84151604D01*
X168557051Y-84178864D01*
X168513778Y-84201995D01*
X168468445Y-84220772D01*
X168421490Y-84235016D01*
X168373365Y-84244588D01*
X168324534Y-84249398D01*
X168300000Y-84249398D01*
X168300000Y-84250000D01*
X167750000Y-84250000D01*
X167750000Y-82750000D01*
G37*
D14*
X167000000Y-83500000D03*
D11*
G36*
X165700000Y-84249398D02*
G01*
X165675466Y-84249398D01*
X165626635Y-84244588D01*
X165578510Y-84235016D01*
X165531555Y-84220772D01*
X165486222Y-84201995D01*
X165442949Y-84178864D01*
X165402150Y-84151604D01*
X165364221Y-84120476D01*
X165329524Y-84085779D01*
X165298396Y-84047850D01*
X165271136Y-84007051D01*
X165248005Y-83963778D01*
X165229228Y-83918445D01*
X165214984Y-83871490D01*
X165205412Y-83823365D01*
X165200602Y-83774534D01*
X165200602Y-83750000D01*
X165200000Y-83750000D01*
X165200000Y-83250000D01*
X165200602Y-83250000D01*
X165200602Y-83225466D01*
X165205412Y-83176635D01*
X165214984Y-83128510D01*
X165229228Y-83081555D01*
X165248005Y-83036222D01*
X165271136Y-82992949D01*
X165298396Y-82952150D01*
X165329524Y-82914221D01*
X165364221Y-82879524D01*
X165402150Y-82848396D01*
X165442949Y-82821136D01*
X165486222Y-82798005D01*
X165531555Y-82779228D01*
X165578510Y-82764984D01*
X165626635Y-82755412D01*
X165675466Y-82750602D01*
X165700000Y-82750602D01*
X165700000Y-82750000D01*
X166250000Y-82750000D01*
X166250000Y-84250000D01*
X165700000Y-84250000D01*
X165700000Y-84249398D01*
G37*
%TD*%
%TO.C,JP6*%
G36*
X159850602Y-120450000D02*
G01*
X159850602Y-120425466D01*
X159855412Y-120376635D01*
X159864984Y-120328510D01*
X159879228Y-120281555D01*
X159898005Y-120236222D01*
X159921136Y-120192949D01*
X159948396Y-120152150D01*
X159979524Y-120114221D01*
X160014221Y-120079524D01*
X160052150Y-120048396D01*
X160092949Y-120021136D01*
X160136222Y-119998005D01*
X160181555Y-119979228D01*
X160228510Y-119964984D01*
X160276635Y-119955412D01*
X160325466Y-119950602D01*
X160350000Y-119950602D01*
X160350000Y-119950000D01*
X160850000Y-119950000D01*
X160850000Y-119950602D01*
X160874534Y-119950602D01*
X160923365Y-119955412D01*
X160971490Y-119964984D01*
X161018445Y-119979228D01*
X161063778Y-119998005D01*
X161107051Y-120021136D01*
X161147850Y-120048396D01*
X161185779Y-120079524D01*
X161220476Y-120114221D01*
X161251604Y-120152150D01*
X161278864Y-120192949D01*
X161301995Y-120236222D01*
X161320772Y-120281555D01*
X161335016Y-120328510D01*
X161344588Y-120376635D01*
X161349398Y-120425466D01*
X161349398Y-120450000D01*
X161350000Y-120450000D01*
X161350000Y-120950000D01*
X159850000Y-120950000D01*
X159850000Y-120450000D01*
X159850602Y-120450000D01*
G37*
G36*
X161350000Y-121250000D02*
G01*
X161350000Y-121750000D01*
X161349398Y-121750000D01*
X161349398Y-121774534D01*
X161344588Y-121823365D01*
X161335016Y-121871490D01*
X161320772Y-121918445D01*
X161301995Y-121963778D01*
X161278864Y-122007051D01*
X161251604Y-122047850D01*
X161220476Y-122085779D01*
X161185779Y-122120476D01*
X161147850Y-122151604D01*
X161107051Y-122178864D01*
X161063778Y-122201995D01*
X161018445Y-122220772D01*
X160971490Y-122235016D01*
X160923365Y-122244588D01*
X160874534Y-122249398D01*
X160850000Y-122249398D01*
X160850000Y-122250000D01*
X160350000Y-122250000D01*
X160350000Y-122249398D01*
X160325466Y-122249398D01*
X160276635Y-122244588D01*
X160228510Y-122235016D01*
X160181555Y-122220772D01*
X160136222Y-122201995D01*
X160092949Y-122178864D01*
X160052150Y-122151604D01*
X160014221Y-122120476D01*
X159979524Y-122085779D01*
X159948396Y-122047850D01*
X159921136Y-122007051D01*
X159898005Y-121963778D01*
X159879228Y-121918445D01*
X159864984Y-121871490D01*
X159855412Y-121823365D01*
X159850602Y-121774534D01*
X159850602Y-121750000D01*
X159850000Y-121750000D01*
X159850000Y-121250000D01*
X161350000Y-121250000D01*
G37*
%TD*%
%TO.C,JP5*%
G36*
X136450602Y-120450000D02*
G01*
X136450602Y-120425466D01*
X136455412Y-120376635D01*
X136464984Y-120328510D01*
X136479228Y-120281555D01*
X136498005Y-120236222D01*
X136521136Y-120192949D01*
X136548396Y-120152150D01*
X136579524Y-120114221D01*
X136614221Y-120079524D01*
X136652150Y-120048396D01*
X136692949Y-120021136D01*
X136736222Y-119998005D01*
X136781555Y-119979228D01*
X136828510Y-119964984D01*
X136876635Y-119955412D01*
X136925466Y-119950602D01*
X136950000Y-119950602D01*
X136950000Y-119950000D01*
X137450000Y-119950000D01*
X137450000Y-119950602D01*
X137474534Y-119950602D01*
X137523365Y-119955412D01*
X137571490Y-119964984D01*
X137618445Y-119979228D01*
X137663778Y-119998005D01*
X137707051Y-120021136D01*
X137747850Y-120048396D01*
X137785779Y-120079524D01*
X137820476Y-120114221D01*
X137851604Y-120152150D01*
X137878864Y-120192949D01*
X137901995Y-120236222D01*
X137920772Y-120281555D01*
X137935016Y-120328510D01*
X137944588Y-120376635D01*
X137949398Y-120425466D01*
X137949398Y-120450000D01*
X137950000Y-120450000D01*
X137950000Y-120950000D01*
X136450000Y-120950000D01*
X136450000Y-120450000D01*
X136450602Y-120450000D01*
G37*
G36*
X137950000Y-121250000D02*
G01*
X137950000Y-121750000D01*
X137949398Y-121750000D01*
X137949398Y-121774534D01*
X137944588Y-121823365D01*
X137935016Y-121871490D01*
X137920772Y-121918445D01*
X137901995Y-121963778D01*
X137878864Y-122007051D01*
X137851604Y-122047850D01*
X137820476Y-122085779D01*
X137785779Y-122120476D01*
X137747850Y-122151604D01*
X137707051Y-122178864D01*
X137663778Y-122201995D01*
X137618445Y-122220772D01*
X137571490Y-122235016D01*
X137523365Y-122244588D01*
X137474534Y-122249398D01*
X137450000Y-122249398D01*
X137450000Y-122250000D01*
X136950000Y-122250000D01*
X136950000Y-122249398D01*
X136925466Y-122249398D01*
X136876635Y-122244588D01*
X136828510Y-122235016D01*
X136781555Y-122220772D01*
X136736222Y-122201995D01*
X136692949Y-122178864D01*
X136652150Y-122151604D01*
X136614221Y-122120476D01*
X136579524Y-122085779D01*
X136548396Y-122047850D01*
X136521136Y-122007051D01*
X136498005Y-121963778D01*
X136479228Y-121918445D01*
X136464984Y-121871490D01*
X136455412Y-121823365D01*
X136450602Y-121774534D01*
X136450602Y-121750000D01*
X136450000Y-121750000D01*
X136450000Y-121250000D01*
X137950000Y-121250000D01*
G37*
%TD*%
%TO.C,R22*%
G36*
G01*
X182737500Y-75200002D02*
X182737500Y-74299998D01*
G75*
G02*
X182987498Y-74050000I249998J0D01*
G01*
X183512502Y-74050000D01*
G75*
G02*
X183762500Y-74299998I0J-249998D01*
G01*
X183762500Y-75200002D01*
G75*
G02*
X183512502Y-75450000I-249998J0D01*
G01*
X182987498Y-75450000D01*
G75*
G02*
X182737500Y-75200002I0J249998D01*
G01*
G37*
G36*
G01*
X180912500Y-75200002D02*
X180912500Y-74299998D01*
G75*
G02*
X181162498Y-74050000I249998J0D01*
G01*
X181687502Y-74050000D01*
G75*
G02*
X181937500Y-74299998I0J-249998D01*
G01*
X181937500Y-75200002D01*
G75*
G02*
X181687502Y-75450000I-249998J0D01*
G01*
X181162498Y-75450000D01*
G75*
G02*
X180912500Y-75200002I0J249998D01*
G01*
G37*
%TD*%
%TO.C,R21*%
G36*
G01*
X175812500Y-75200002D02*
X175812500Y-74299998D01*
G75*
G02*
X176062498Y-74050000I249998J0D01*
G01*
X176587502Y-74050000D01*
G75*
G02*
X176837500Y-74299998I0J-249998D01*
G01*
X176837500Y-75200002D01*
G75*
G02*
X176587502Y-75450000I-249998J0D01*
G01*
X176062498Y-75450000D01*
G75*
G02*
X175812500Y-75200002I0J249998D01*
G01*
G37*
G36*
G01*
X173987500Y-75200002D02*
X173987500Y-74299998D01*
G75*
G02*
X174237498Y-74050000I249998J0D01*
G01*
X174762502Y-74050000D01*
G75*
G02*
X175012500Y-74299998I0J-249998D01*
G01*
X175012500Y-75200002D01*
G75*
G02*
X174762502Y-75450000I-249998J0D01*
G01*
X174237498Y-75450000D01*
G75*
G02*
X173987500Y-75200002I0J249998D01*
G01*
G37*
%TD*%
%TO.C,R16*%
G36*
G01*
X168562500Y-75200002D02*
X168562500Y-74299998D01*
G75*
G02*
X168812498Y-74050000I249998J0D01*
G01*
X169337502Y-74050000D01*
G75*
G02*
X169587500Y-74299998I0J-249998D01*
G01*
X169587500Y-75200002D01*
G75*
G02*
X169337502Y-75450000I-249998J0D01*
G01*
X168812498Y-75450000D01*
G75*
G02*
X168562500Y-75200002I0J249998D01*
G01*
G37*
G36*
G01*
X166737500Y-75200002D02*
X166737500Y-74299998D01*
G75*
G02*
X166987498Y-74050000I249998J0D01*
G01*
X167512502Y-74050000D01*
G75*
G02*
X167762500Y-74299998I0J-249998D01*
G01*
X167762500Y-75200002D01*
G75*
G02*
X167512502Y-75450000I-249998J0D01*
G01*
X166987498Y-75450000D01*
G75*
G02*
X166737500Y-75200002I0J249998D01*
G01*
G37*
%TD*%
%TO.C,D24*%
G36*
G01*
X186137500Y-74756250D02*
X186137500Y-74243750D01*
G75*
G02*
X186356250Y-74025000I218750J0D01*
G01*
X186793750Y-74025000D01*
G75*
G02*
X187012500Y-74243750I0J-218750D01*
G01*
X187012500Y-74756250D01*
G75*
G02*
X186793750Y-74975000I-218750J0D01*
G01*
X186356250Y-74975000D01*
G75*
G02*
X186137500Y-74756250I0J218750D01*
G01*
G37*
G36*
G01*
X184562500Y-74756250D02*
X184562500Y-74243750D01*
G75*
G02*
X184781250Y-74025000I218750J0D01*
G01*
X185218750Y-74025000D01*
G75*
G02*
X185437500Y-74243750I0J-218750D01*
G01*
X185437500Y-74756250D01*
G75*
G02*
X185218750Y-74975000I-218750J0D01*
G01*
X184781250Y-74975000D01*
G75*
G02*
X184562500Y-74756250I0J218750D01*
G01*
G37*
%TD*%
%TO.C,D23*%
G36*
G01*
X179195001Y-74756250D02*
X179195001Y-74243750D01*
G75*
G02*
X179413751Y-74025000I218750J0D01*
G01*
X179851251Y-74025000D01*
G75*
G02*
X180070001Y-74243750I0J-218750D01*
G01*
X180070001Y-74756250D01*
G75*
G02*
X179851251Y-74975000I-218750J0D01*
G01*
X179413751Y-74975000D01*
G75*
G02*
X179195001Y-74756250I0J218750D01*
G01*
G37*
G36*
G01*
X177620001Y-74756250D02*
X177620001Y-74243750D01*
G75*
G02*
X177838751Y-74025000I218750J0D01*
G01*
X178276251Y-74025000D01*
G75*
G02*
X178495001Y-74243750I0J-218750D01*
G01*
X178495001Y-74756250D01*
G75*
G02*
X178276251Y-74975000I-218750J0D01*
G01*
X177838751Y-74975000D01*
G75*
G02*
X177620001Y-74756250I0J218750D01*
G01*
G37*
%TD*%
%TO.C,D19*%
G36*
G01*
X172137500Y-74756250D02*
X172137500Y-74243750D01*
G75*
G02*
X172356250Y-74025000I218750J0D01*
G01*
X172793750Y-74025000D01*
G75*
G02*
X173012500Y-74243750I0J-218750D01*
G01*
X173012500Y-74756250D01*
G75*
G02*
X172793750Y-74975000I-218750J0D01*
G01*
X172356250Y-74975000D01*
G75*
G02*
X172137500Y-74756250I0J218750D01*
G01*
G37*
G36*
G01*
X170562500Y-74756250D02*
X170562500Y-74243750D01*
G75*
G02*
X170781250Y-74025000I218750J0D01*
G01*
X171218750Y-74025000D01*
G75*
G02*
X171437500Y-74243750I0J-218750D01*
G01*
X171437500Y-74756250D01*
G75*
G02*
X171218750Y-74975000I-218750J0D01*
G01*
X170781250Y-74975000D01*
G75*
G02*
X170562500Y-74756250I0J218750D01*
G01*
G37*
%TD*%
D12*
%TO.C,J21*%
X185500000Y-92790000D03*
D13*
X185500000Y-90250000D03*
%TD*%
D12*
%TO.C,J20*%
X181000000Y-92790000D03*
D13*
X181000000Y-90250000D03*
%TD*%
D12*
%TO.C,J19*%
X176500000Y-92790000D03*
D13*
X176500000Y-90250000D03*
%TD*%
%TO.C,R20*%
G36*
G01*
X175150002Y-97912500D02*
X174249998Y-97912500D01*
G75*
G02*
X174000000Y-97662502I0J249998D01*
G01*
X174000000Y-97137498D01*
G75*
G02*
X174249998Y-96887500I249998J0D01*
G01*
X175150002Y-96887500D01*
G75*
G02*
X175400000Y-97137498I0J-249998D01*
G01*
X175400000Y-97662502D01*
G75*
G02*
X175150002Y-97912500I-249998J0D01*
G01*
G37*
G36*
G01*
X175150002Y-99737500D02*
X174249998Y-99737500D01*
G75*
G02*
X174000000Y-99487502I0J249998D01*
G01*
X174000000Y-98962498D01*
G75*
G02*
X174249998Y-98712500I249998J0D01*
G01*
X175150002Y-98712500D01*
G75*
G02*
X175400000Y-98962498I0J-249998D01*
G01*
X175400000Y-99487502D01*
G75*
G02*
X175150002Y-99737500I-249998J0D01*
G01*
G37*
%TD*%
%TO.C,R19*%
G36*
G01*
X177250002Y-97912500D02*
X176349998Y-97912500D01*
G75*
G02*
X176100000Y-97662502I0J249998D01*
G01*
X176100000Y-97137498D01*
G75*
G02*
X176349998Y-96887500I249998J0D01*
G01*
X177250002Y-96887500D01*
G75*
G02*
X177500000Y-97137498I0J-249998D01*
G01*
X177500000Y-97662502D01*
G75*
G02*
X177250002Y-97912500I-249998J0D01*
G01*
G37*
G36*
G01*
X177250002Y-99737500D02*
X176349998Y-99737500D01*
G75*
G02*
X176100000Y-99487502I0J249998D01*
G01*
X176100000Y-98962498D01*
G75*
G02*
X176349998Y-98712500I249998J0D01*
G01*
X177250002Y-98712500D01*
G75*
G02*
X177500000Y-98962498I0J-249998D01*
G01*
X177500000Y-99487502D01*
G75*
G02*
X177250002Y-99737500I-249998J0D01*
G01*
G37*
%TD*%
%TO.C,R18*%
G36*
G01*
X179350002Y-97900000D02*
X178449998Y-97900000D01*
G75*
G02*
X178200000Y-97650002I0J249998D01*
G01*
X178200000Y-97124998D01*
G75*
G02*
X178449998Y-96875000I249998J0D01*
G01*
X179350002Y-96875000D01*
G75*
G02*
X179600000Y-97124998I0J-249998D01*
G01*
X179600000Y-97650002D01*
G75*
G02*
X179350002Y-97900000I-249998J0D01*
G01*
G37*
G36*
G01*
X179350002Y-99725000D02*
X178449998Y-99725000D01*
G75*
G02*
X178200000Y-99475002I0J249998D01*
G01*
X178200000Y-98949998D01*
G75*
G02*
X178449998Y-98700000I249998J0D01*
G01*
X179350002Y-98700000D01*
G75*
G02*
X179600000Y-98949998I0J-249998D01*
G01*
X179600000Y-99475002D01*
G75*
G02*
X179350002Y-99725000I-249998J0D01*
G01*
G37*
%TD*%
%TO.C,R17*%
G36*
G01*
X181450002Y-97912500D02*
X180549998Y-97912500D01*
G75*
G02*
X180300000Y-97662502I0J249998D01*
G01*
X180300000Y-97137498D01*
G75*
G02*
X180549998Y-96887500I249998J0D01*
G01*
X181450002Y-96887500D01*
G75*
G02*
X181700000Y-97137498I0J-249998D01*
G01*
X181700000Y-97662502D01*
G75*
G02*
X181450002Y-97912500I-249998J0D01*
G01*
G37*
G36*
G01*
X181450002Y-99737500D02*
X180549998Y-99737500D01*
G75*
G02*
X180300000Y-99487502I0J249998D01*
G01*
X180300000Y-98962498D01*
G75*
G02*
X180549998Y-98712500I249998J0D01*
G01*
X181450002Y-98712500D01*
G75*
G02*
X181700000Y-98962498I0J-249998D01*
G01*
X181700000Y-99487502D01*
G75*
G02*
X181450002Y-99737500I-249998J0D01*
G01*
G37*
%TD*%
%TO.C,R10*%
G36*
G01*
X183550002Y-109812500D02*
X182649998Y-109812500D01*
G75*
G02*
X182400000Y-109562502I0J249998D01*
G01*
X182400000Y-109037498D01*
G75*
G02*
X182649998Y-108787500I249998J0D01*
G01*
X183550002Y-108787500D01*
G75*
G02*
X183800000Y-109037498I0J-249998D01*
G01*
X183800000Y-109562502D01*
G75*
G02*
X183550002Y-109812500I-249998J0D01*
G01*
G37*
G36*
G01*
X183550002Y-111637500D02*
X182649998Y-111637500D01*
G75*
G02*
X182400000Y-111387502I0J249998D01*
G01*
X182400000Y-110862498D01*
G75*
G02*
X182649998Y-110612500I249998J0D01*
G01*
X183550002Y-110612500D01*
G75*
G02*
X183800000Y-110862498I0J-249998D01*
G01*
X183800000Y-111387502D01*
G75*
G02*
X183550002Y-111637500I-249998J0D01*
G01*
G37*
%TD*%
%TO.C,R9*%
G36*
G01*
X181450002Y-109812500D02*
X180549998Y-109812500D01*
G75*
G02*
X180300000Y-109562502I0J249998D01*
G01*
X180300000Y-109037498D01*
G75*
G02*
X180549998Y-108787500I249998J0D01*
G01*
X181450002Y-108787500D01*
G75*
G02*
X181700000Y-109037498I0J-249998D01*
G01*
X181700000Y-109562502D01*
G75*
G02*
X181450002Y-109812500I-249998J0D01*
G01*
G37*
G36*
G01*
X181450002Y-111637500D02*
X180549998Y-111637500D01*
G75*
G02*
X180300000Y-111387502I0J249998D01*
G01*
X180300000Y-110862498D01*
G75*
G02*
X180549998Y-110612500I249998J0D01*
G01*
X181450002Y-110612500D01*
G75*
G02*
X181700000Y-110862498I0J-249998D01*
G01*
X181700000Y-111387502D01*
G75*
G02*
X181450002Y-111637500I-249998J0D01*
G01*
G37*
%TD*%
%TO.C,R8*%
G36*
G01*
X179350002Y-109812500D02*
X178449998Y-109812500D01*
G75*
G02*
X178200000Y-109562502I0J249998D01*
G01*
X178200000Y-109037498D01*
G75*
G02*
X178449998Y-108787500I249998J0D01*
G01*
X179350002Y-108787500D01*
G75*
G02*
X179600000Y-109037498I0J-249998D01*
G01*
X179600000Y-109562502D01*
G75*
G02*
X179350002Y-109812500I-249998J0D01*
G01*
G37*
G36*
G01*
X179350002Y-111637500D02*
X178449998Y-111637500D01*
G75*
G02*
X178200000Y-111387502I0J249998D01*
G01*
X178200000Y-110862498D01*
G75*
G02*
X178449998Y-110612500I249998J0D01*
G01*
X179350002Y-110612500D01*
G75*
G02*
X179600000Y-110862498I0J-249998D01*
G01*
X179600000Y-111387502D01*
G75*
G02*
X179350002Y-111637500I-249998J0D01*
G01*
G37*
%TD*%
%TO.C,R7*%
G36*
G01*
X177250002Y-109812500D02*
X176349998Y-109812500D01*
G75*
G02*
X176100000Y-109562502I0J249998D01*
G01*
X176100000Y-109037498D01*
G75*
G02*
X176349998Y-108787500I249998J0D01*
G01*
X177250002Y-108787500D01*
G75*
G02*
X177500000Y-109037498I0J-249998D01*
G01*
X177500000Y-109562502D01*
G75*
G02*
X177250002Y-109812500I-249998J0D01*
G01*
G37*
G36*
G01*
X177250002Y-111637500D02*
X176349998Y-111637500D01*
G75*
G02*
X176100000Y-111387502I0J249998D01*
G01*
X176100000Y-110862498D01*
G75*
G02*
X176349998Y-110612500I249998J0D01*
G01*
X177250002Y-110612500D01*
G75*
G02*
X177500000Y-110862498I0J-249998D01*
G01*
X177500000Y-111387502D01*
G75*
G02*
X177250002Y-111637500I-249998J0D01*
G01*
G37*
%TD*%
%TO.C,R6*%
G36*
G01*
X175150002Y-109812500D02*
X174249998Y-109812500D01*
G75*
G02*
X174000000Y-109562502I0J249998D01*
G01*
X174000000Y-109037498D01*
G75*
G02*
X174249998Y-108787500I249998J0D01*
G01*
X175150002Y-108787500D01*
G75*
G02*
X175400000Y-109037498I0J-249998D01*
G01*
X175400000Y-109562502D01*
G75*
G02*
X175150002Y-109812500I-249998J0D01*
G01*
G37*
G36*
G01*
X175150002Y-111637500D02*
X174249998Y-111637500D01*
G75*
G02*
X174000000Y-111387502I0J249998D01*
G01*
X174000000Y-110862498D01*
G75*
G02*
X174249998Y-110612500I249998J0D01*
G01*
X175150002Y-110612500D01*
G75*
G02*
X175400000Y-110862498I0J-249998D01*
G01*
X175400000Y-111387502D01*
G75*
G02*
X175150002Y-111637500I-249998J0D01*
G01*
G37*
%TD*%
%TO.C,R5*%
G36*
G01*
X173050002Y-109812500D02*
X172149998Y-109812500D01*
G75*
G02*
X171900000Y-109562502I0J249998D01*
G01*
X171900000Y-109037498D01*
G75*
G02*
X172149998Y-108787500I249998J0D01*
G01*
X173050002Y-108787500D01*
G75*
G02*
X173300000Y-109037498I0J-249998D01*
G01*
X173300000Y-109562502D01*
G75*
G02*
X173050002Y-109812500I-249998J0D01*
G01*
G37*
G36*
G01*
X173050002Y-111637500D02*
X172149998Y-111637500D01*
G75*
G02*
X171900000Y-111387502I0J249998D01*
G01*
X171900000Y-110862498D01*
G75*
G02*
X172149998Y-110612500I249998J0D01*
G01*
X173050002Y-110612500D01*
G75*
G02*
X173300000Y-110862498I0J-249998D01*
G01*
X173300000Y-111387502D01*
G75*
G02*
X173050002Y-111637500I-249998J0D01*
G01*
G37*
%TD*%
%TO.C,R3*%
G36*
G01*
X161312500Y-75200002D02*
X161312500Y-74299998D01*
G75*
G02*
X161562498Y-74050000I249998J0D01*
G01*
X162087502Y-74050000D01*
G75*
G02*
X162337500Y-74299998I0J-249998D01*
G01*
X162337500Y-75200002D01*
G75*
G02*
X162087502Y-75450000I-249998J0D01*
G01*
X161562498Y-75450000D01*
G75*
G02*
X161312500Y-75200002I0J249998D01*
G01*
G37*
G36*
G01*
X159487500Y-75200002D02*
X159487500Y-74299998D01*
G75*
G02*
X159737498Y-74050000I249998J0D01*
G01*
X160262502Y-74050000D01*
G75*
G02*
X160512500Y-74299998I0J-249998D01*
G01*
X160512500Y-75200002D01*
G75*
G02*
X160262502Y-75450000I-249998J0D01*
G01*
X159737498Y-75450000D01*
G75*
G02*
X159487500Y-75200002I0J249998D01*
G01*
G37*
%TD*%
%TO.C,D10*%
G36*
G01*
X179943750Y-116162500D02*
X180456250Y-116162500D01*
G75*
G02*
X180675000Y-116381250I0J-218750D01*
G01*
X180675000Y-116818750D01*
G75*
G02*
X180456250Y-117037500I-218750J0D01*
G01*
X179943750Y-117037500D01*
G75*
G02*
X179725000Y-116818750I0J218750D01*
G01*
X179725000Y-116381250D01*
G75*
G02*
X179943750Y-116162500I218750J0D01*
G01*
G37*
G36*
G01*
X179943750Y-117737500D02*
X180456250Y-117737500D01*
G75*
G02*
X180675000Y-117956250I0J-218750D01*
G01*
X180675000Y-118393750D01*
G75*
G02*
X180456250Y-118612500I-218750J0D01*
G01*
X179943750Y-118612500D01*
G75*
G02*
X179725000Y-118393750I0J218750D01*
G01*
X179725000Y-117956250D01*
G75*
G02*
X179943750Y-117737500I218750J0D01*
G01*
G37*
%TD*%
%TO.C,D9*%
G36*
G01*
X180456250Y-122837500D02*
X179943750Y-122837500D01*
G75*
G02*
X179725000Y-122618750I0J218750D01*
G01*
X179725000Y-122181250D01*
G75*
G02*
X179943750Y-121962500I218750J0D01*
G01*
X180456250Y-121962500D01*
G75*
G02*
X180675000Y-122181250I0J-218750D01*
G01*
X180675000Y-122618750D01*
G75*
G02*
X180456250Y-122837500I-218750J0D01*
G01*
G37*
G36*
G01*
X180456250Y-121262500D02*
X179943750Y-121262500D01*
G75*
G02*
X179725000Y-121043750I0J218750D01*
G01*
X179725000Y-120606250D01*
G75*
G02*
X179943750Y-120387500I218750J0D01*
G01*
X180456250Y-120387500D01*
G75*
G02*
X180675000Y-120606250I0J-218750D01*
G01*
X180675000Y-121043750D01*
G75*
G02*
X180456250Y-121262500I-218750J0D01*
G01*
G37*
%TD*%
%TO.C,D8*%
G36*
G01*
X177643750Y-116175000D02*
X178156250Y-116175000D01*
G75*
G02*
X178375000Y-116393750I0J-218750D01*
G01*
X178375000Y-116831250D01*
G75*
G02*
X178156250Y-117050000I-218750J0D01*
G01*
X177643750Y-117050000D01*
G75*
G02*
X177425000Y-116831250I0J218750D01*
G01*
X177425000Y-116393750D01*
G75*
G02*
X177643750Y-116175000I218750J0D01*
G01*
G37*
G36*
G01*
X177643750Y-117750000D02*
X178156250Y-117750000D01*
G75*
G02*
X178375000Y-117968750I0J-218750D01*
G01*
X178375000Y-118406250D01*
G75*
G02*
X178156250Y-118625000I-218750J0D01*
G01*
X177643750Y-118625000D01*
G75*
G02*
X177425000Y-118406250I0J218750D01*
G01*
X177425000Y-117968750D01*
G75*
G02*
X177643750Y-117750000I218750J0D01*
G01*
G37*
%TD*%
%TO.C,D7*%
G36*
G01*
X178156250Y-122837500D02*
X177643750Y-122837500D01*
G75*
G02*
X177425000Y-122618750I0J218750D01*
G01*
X177425000Y-122181250D01*
G75*
G02*
X177643750Y-121962500I218750J0D01*
G01*
X178156250Y-121962500D01*
G75*
G02*
X178375000Y-122181250I0J-218750D01*
G01*
X178375000Y-122618750D01*
G75*
G02*
X178156250Y-122837500I-218750J0D01*
G01*
G37*
G36*
G01*
X178156250Y-121262500D02*
X177643750Y-121262500D01*
G75*
G02*
X177425000Y-121043750I0J218750D01*
G01*
X177425000Y-120606250D01*
G75*
G02*
X177643750Y-120387500I218750J0D01*
G01*
X178156250Y-120387500D01*
G75*
G02*
X178375000Y-120606250I0J-218750D01*
G01*
X178375000Y-121043750D01*
G75*
G02*
X178156250Y-121262500I-218750J0D01*
G01*
G37*
%TD*%
%TO.C,D6*%
G36*
G01*
X182143750Y-116162500D02*
X182656250Y-116162500D01*
G75*
G02*
X182875000Y-116381250I0J-218750D01*
G01*
X182875000Y-116818750D01*
G75*
G02*
X182656250Y-117037500I-218750J0D01*
G01*
X182143750Y-117037500D01*
G75*
G02*
X181925000Y-116818750I0J218750D01*
G01*
X181925000Y-116381250D01*
G75*
G02*
X182143750Y-116162500I218750J0D01*
G01*
G37*
G36*
G01*
X182143750Y-117737500D02*
X182656250Y-117737500D01*
G75*
G02*
X182875000Y-117956250I0J-218750D01*
G01*
X182875000Y-118393750D01*
G75*
G02*
X182656250Y-118612500I-218750J0D01*
G01*
X182143750Y-118612500D01*
G75*
G02*
X181925000Y-118393750I0J218750D01*
G01*
X181925000Y-117956250D01*
G75*
G02*
X182143750Y-117737500I218750J0D01*
G01*
G37*
%TD*%
%TO.C,R12*%
G36*
G01*
X177250002Y-103912500D02*
X176349998Y-103912500D01*
G75*
G02*
X176100000Y-103662502I0J249998D01*
G01*
X176100000Y-103137498D01*
G75*
G02*
X176349998Y-102887500I249998J0D01*
G01*
X177250002Y-102887500D01*
G75*
G02*
X177500000Y-103137498I0J-249998D01*
G01*
X177500000Y-103662502D01*
G75*
G02*
X177250002Y-103912500I-249998J0D01*
G01*
G37*
G36*
G01*
X177250002Y-105737500D02*
X176349998Y-105737500D01*
G75*
G02*
X176100000Y-105487502I0J249998D01*
G01*
X176100000Y-104962498D01*
G75*
G02*
X176349998Y-104712500I249998J0D01*
G01*
X177250002Y-104712500D01*
G75*
G02*
X177500000Y-104962498I0J-249998D01*
G01*
X177500000Y-105487502D01*
G75*
G02*
X177250002Y-105737500I-249998J0D01*
G01*
G37*
%TD*%
%TO.C,R11*%
G36*
G01*
X175150002Y-103912500D02*
X174249998Y-103912500D01*
G75*
G02*
X174000000Y-103662502I0J249998D01*
G01*
X174000000Y-103137498D01*
G75*
G02*
X174249998Y-102887500I249998J0D01*
G01*
X175150002Y-102887500D01*
G75*
G02*
X175400000Y-103137498I0J-249998D01*
G01*
X175400000Y-103662502D01*
G75*
G02*
X175150002Y-103912500I-249998J0D01*
G01*
G37*
G36*
G01*
X175150002Y-105737500D02*
X174249998Y-105737500D01*
G75*
G02*
X174000000Y-105487502I0J249998D01*
G01*
X174000000Y-104962498D01*
G75*
G02*
X174249998Y-104712500I249998J0D01*
G01*
X175150002Y-104712500D01*
G75*
G02*
X175400000Y-104962498I0J-249998D01*
G01*
X175400000Y-105487502D01*
G75*
G02*
X175150002Y-105737500I-249998J0D01*
G01*
G37*
%TD*%
D12*
%TO.C,J17*%
X178500000Y-136200000D03*
X178500000Y-138740000D03*
D13*
X178500000Y-141280000D03*
%TD*%
D12*
%TO.C,J16*%
X173600000Y-136200000D03*
X173600000Y-138740000D03*
D13*
X173600000Y-141280000D03*
%TD*%
D12*
%TO.C,J15*%
X168500000Y-136200000D03*
X168500000Y-138740000D03*
D13*
X168500000Y-141280000D03*
%TD*%
%TO.C,D18*%
G36*
G01*
X183437500Y-106543750D02*
X183437500Y-107056250D01*
G75*
G02*
X183218750Y-107275000I-218750J0D01*
G01*
X182781250Y-107275000D01*
G75*
G02*
X182562500Y-107056250I0J218750D01*
G01*
X182562500Y-106543750D01*
G75*
G02*
X182781250Y-106325000I218750J0D01*
G01*
X183218750Y-106325000D01*
G75*
G02*
X183437500Y-106543750I0J-218750D01*
G01*
G37*
G36*
G01*
X185012500Y-106543750D02*
X185012500Y-107056250D01*
G75*
G02*
X184793750Y-107275000I-218750J0D01*
G01*
X184356250Y-107275000D01*
G75*
G02*
X184137500Y-107056250I0J218750D01*
G01*
X184137500Y-106543750D01*
G75*
G02*
X184356250Y-106325000I218750J0D01*
G01*
X184793750Y-106325000D01*
G75*
G02*
X185012500Y-106543750I0J-218750D01*
G01*
G37*
%TD*%
%TO.C,D17*%
G36*
G01*
X180950000Y-107056250D02*
X180950000Y-106543750D01*
G75*
G02*
X181168750Y-106325000I218750J0D01*
G01*
X181606250Y-106325000D01*
G75*
G02*
X181825000Y-106543750I0J-218750D01*
G01*
X181825000Y-107056250D01*
G75*
G02*
X181606250Y-107275000I-218750J0D01*
G01*
X181168750Y-107275000D01*
G75*
G02*
X180950000Y-107056250I0J218750D01*
G01*
G37*
G36*
G01*
X179375000Y-107056250D02*
X179375000Y-106543750D01*
G75*
G02*
X179593750Y-106325000I218750J0D01*
G01*
X180031250Y-106325000D01*
G75*
G02*
X180250000Y-106543750I0J-218750D01*
G01*
X180250000Y-107056250D01*
G75*
G02*
X180031250Y-107275000I-218750J0D01*
G01*
X179593750Y-107275000D01*
G75*
G02*
X179375000Y-107056250I0J218750D01*
G01*
G37*
%TD*%
%TO.C,D16*%
G36*
G01*
X182656250Y-121250000D02*
X182143750Y-121250000D01*
G75*
G02*
X181925000Y-121031250I0J218750D01*
G01*
X181925000Y-120593750D01*
G75*
G02*
X182143750Y-120375000I218750J0D01*
G01*
X182656250Y-120375000D01*
G75*
G02*
X182875000Y-120593750I0J-218750D01*
G01*
X182875000Y-121031250D01*
G75*
G02*
X182656250Y-121250000I-218750J0D01*
G01*
G37*
G36*
G01*
X182656250Y-122825000D02*
X182143750Y-122825000D01*
G75*
G02*
X181925000Y-122606250I0J218750D01*
G01*
X181925000Y-122168750D01*
G75*
G02*
X182143750Y-121950000I218750J0D01*
G01*
X182656250Y-121950000D01*
G75*
G02*
X182875000Y-122168750I0J-218750D01*
G01*
X182875000Y-122606250D01*
G75*
G02*
X182656250Y-122825000I-218750J0D01*
G01*
G37*
%TD*%
D15*
%TO.C,A1*%
X133960000Y-115800000D03*
X151740000Y-128500000D03*
X136500000Y-115800000D03*
X149200000Y-128500000D03*
X139040000Y-115800000D03*
X146660000Y-128500000D03*
X141580000Y-115800000D03*
X144120000Y-128500000D03*
X144120000Y-115800000D03*
X141580000Y-128500000D03*
X146660000Y-115800000D03*
X139040000Y-128500000D03*
X149200000Y-115800000D03*
X136500000Y-128500000D03*
X151740000Y-115800000D03*
D16*
X133960000Y-128500000D03*
%TD*%
D12*
%TO.C,J13*%
X151130000Y-69000000D03*
X153670000Y-69000000D03*
X156210000Y-69000000D03*
D13*
X158750000Y-69000000D03*
%TD*%
D17*
%TO.C,U2*%
X139150000Y-108950000D03*
X139150000Y-107650000D03*
X137850000Y-107650000D03*
X137850000Y-108950000D03*
X139150000Y-105050000D03*
X139150000Y-106350000D03*
X137850000Y-106350000D03*
X137850000Y-105050000D03*
D18*
X138500000Y-107000000D03*
D19*
X141200000Y-105095000D03*
X141200000Y-106365000D03*
X141200000Y-107635000D03*
X141200000Y-108905000D03*
X135800000Y-108905000D03*
X135800000Y-107635000D03*
X135800000Y-106365000D03*
X135800000Y-105095000D03*
%TD*%
%TO.C,D5*%
G36*
G01*
X164887500Y-74756250D02*
X164887500Y-74243750D01*
G75*
G02*
X165106250Y-74025000I218750J0D01*
G01*
X165543750Y-74025000D01*
G75*
G02*
X165762500Y-74243750I0J-218750D01*
G01*
X165762500Y-74756250D01*
G75*
G02*
X165543750Y-74975000I-218750J0D01*
G01*
X165106250Y-74975000D01*
G75*
G02*
X164887500Y-74756250I0J218750D01*
G01*
G37*
G36*
G01*
X163312500Y-74756250D02*
X163312500Y-74243750D01*
G75*
G02*
X163531250Y-74025000I218750J0D01*
G01*
X163968750Y-74025000D01*
G75*
G02*
X164187500Y-74243750I0J-218750D01*
G01*
X164187500Y-74756250D01*
G75*
G02*
X163968750Y-74975000I-218750J0D01*
G01*
X163531250Y-74975000D01*
G75*
G02*
X163312500Y-74756250I0J218750D01*
G01*
G37*
%TD*%
D15*
%TO.C,A2*%
X157500000Y-115800000D03*
X175280000Y-128500000D03*
X160040000Y-115800000D03*
X172740000Y-128500000D03*
X162580000Y-115800000D03*
X170200000Y-128500000D03*
X165120000Y-115800000D03*
X167660000Y-128500000D03*
X167660000Y-115800000D03*
X165120000Y-128500000D03*
X170200000Y-115800000D03*
X162580000Y-128500000D03*
X172740000Y-115800000D03*
X160040000Y-128500000D03*
X175280000Y-115800000D03*
D16*
X157500000Y-128500000D03*
%TD*%
D20*
%TO.C,U3*%
X165800000Y-87590000D03*
X167700000Y-87590000D03*
X167700000Y-89910000D03*
X166750000Y-89910000D03*
X165800000Y-89910000D03*
%TD*%
%TO.C,R15*%
G36*
G01*
X150049998Y-108062500D02*
X150950002Y-108062500D01*
G75*
G02*
X151200000Y-108312498I0J-249998D01*
G01*
X151200000Y-108837502D01*
G75*
G02*
X150950002Y-109087500I-249998J0D01*
G01*
X150049998Y-109087500D01*
G75*
G02*
X149800000Y-108837502I0J249998D01*
G01*
X149800000Y-108312498D01*
G75*
G02*
X150049998Y-108062500I249998J0D01*
G01*
G37*
G36*
G01*
X150049998Y-106237500D02*
X150950002Y-106237500D01*
G75*
G02*
X151200000Y-106487498I0J-249998D01*
G01*
X151200000Y-107012502D01*
G75*
G02*
X150950002Y-107262500I-249998J0D01*
G01*
X150049998Y-107262500D01*
G75*
G02*
X149800000Y-107012502I0J249998D01*
G01*
X149800000Y-106487498D01*
G75*
G02*
X150049998Y-106237500I249998J0D01*
G01*
G37*
%TD*%
%TO.C,R14*%
G36*
G01*
X152299998Y-109812500D02*
X153200002Y-109812500D01*
G75*
G02*
X153450000Y-110062498I0J-249998D01*
G01*
X153450000Y-110587502D01*
G75*
G02*
X153200002Y-110837500I-249998J0D01*
G01*
X152299998Y-110837500D01*
G75*
G02*
X152050000Y-110587502I0J249998D01*
G01*
X152050000Y-110062498D01*
G75*
G02*
X152299998Y-109812500I249998J0D01*
G01*
G37*
G36*
G01*
X152299998Y-107987500D02*
X153200002Y-107987500D01*
G75*
G02*
X153450000Y-108237498I0J-249998D01*
G01*
X153450000Y-108762502D01*
G75*
G02*
X153200002Y-109012500I-249998J0D01*
G01*
X152299998Y-109012500D01*
G75*
G02*
X152050000Y-108762502I0J249998D01*
G01*
X152050000Y-108237498D01*
G75*
G02*
X152299998Y-107987500I249998J0D01*
G01*
G37*
%TD*%
%TO.C,R13*%
G36*
G01*
X146350000Y-110049998D02*
X146350000Y-110950002D01*
G75*
G02*
X146100002Y-111200000I-249998J0D01*
G01*
X145574998Y-111200000D01*
G75*
G02*
X145325000Y-110950002I0J249998D01*
G01*
X145325000Y-110049998D01*
G75*
G02*
X145574998Y-109800000I249998J0D01*
G01*
X146100002Y-109800000D01*
G75*
G02*
X146350000Y-110049998I0J-249998D01*
G01*
G37*
G36*
G01*
X148175000Y-110049998D02*
X148175000Y-110950002D01*
G75*
G02*
X147925002Y-111200000I-249998J0D01*
G01*
X147399998Y-111200000D01*
G75*
G02*
X147150000Y-110950002I0J249998D01*
G01*
X147150000Y-110049998D01*
G75*
G02*
X147399998Y-109800000I249998J0D01*
G01*
X147925002Y-109800000D01*
G75*
G02*
X148175000Y-110049998I0J-249998D01*
G01*
G37*
%TD*%
%TO.C,R2*%
G36*
G01*
X167150000Y-109950002D02*
X167150000Y-109049998D01*
G75*
G02*
X167399998Y-108800000I249998J0D01*
G01*
X167925002Y-108800000D01*
G75*
G02*
X168175000Y-109049998I0J-249998D01*
G01*
X168175000Y-109950002D01*
G75*
G02*
X167925002Y-110200000I-249998J0D01*
G01*
X167399998Y-110200000D01*
G75*
G02*
X167150000Y-109950002I0J249998D01*
G01*
G37*
G36*
G01*
X165325000Y-109950002D02*
X165325000Y-109049998D01*
G75*
G02*
X165574998Y-108800000I249998J0D01*
G01*
X166100002Y-108800000D01*
G75*
G02*
X166350000Y-109049998I0J-249998D01*
G01*
X166350000Y-109950002D01*
G75*
G02*
X166100002Y-110200000I-249998J0D01*
G01*
X165574998Y-110200000D01*
G75*
G02*
X165325000Y-109950002I0J249998D01*
G01*
G37*
%TD*%
%TO.C,R1*%
G36*
G01*
X170000002Y-109850000D02*
X169099998Y-109850000D01*
G75*
G02*
X168850000Y-109600002I0J249998D01*
G01*
X168850000Y-109074998D01*
G75*
G02*
X169099998Y-108825000I249998J0D01*
G01*
X170000002Y-108825000D01*
G75*
G02*
X170250000Y-109074998I0J-249998D01*
G01*
X170250000Y-109600002D01*
G75*
G02*
X170000002Y-109850000I-249998J0D01*
G01*
G37*
G36*
G01*
X170000002Y-111675000D02*
X169099998Y-111675000D01*
G75*
G02*
X168850000Y-111425002I0J249998D01*
G01*
X168850000Y-110899998D01*
G75*
G02*
X169099998Y-110650000I249998J0D01*
G01*
X170000002Y-110650000D01*
G75*
G02*
X170250000Y-110899998I0J-249998D01*
G01*
X170250000Y-111425002D01*
G75*
G02*
X170000002Y-111675000I-249998J0D01*
G01*
G37*
%TD*%
D21*
%TO.C,L1*%
X142600000Y-88130000D03*
X142600000Y-92170000D03*
%TD*%
D22*
%TO.C,J2*%
X130600000Y-100710000D03*
G36*
G01*
X129050000Y-96000000D02*
X132150000Y-96000000D01*
G75*
G02*
X132400000Y-96250000I0J-250000D01*
G01*
X132400000Y-97550000D01*
G75*
G02*
X132150000Y-97800000I-250000J0D01*
G01*
X129050000Y-97800000D01*
G75*
G02*
X128800000Y-97550000I0J250000D01*
G01*
X128800000Y-96250000D01*
G75*
G02*
X129050000Y-96000000I250000J0D01*
G01*
G37*
%TD*%
D23*
%TO.C,D1*%
X143750000Y-97400000D03*
D24*
X137450000Y-99680000D03*
X137450000Y-95120000D03*
%TD*%
%TO.C,C12*%
G36*
G01*
X137100001Y-88825000D02*
X134899999Y-88825000D01*
G75*
G02*
X134650000Y-88575001I0J249999D01*
G01*
X134650000Y-87924999D01*
G75*
G02*
X134899999Y-87675000I249999J0D01*
G01*
X137100001Y-87675000D01*
G75*
G02*
X137350000Y-87924999I0J-249999D01*
G01*
X137350000Y-88575001D01*
G75*
G02*
X137100001Y-88825000I-249999J0D01*
G01*
G37*
G36*
G01*
X137100001Y-91775000D02*
X134899999Y-91775000D01*
G75*
G02*
X134650000Y-91525001I0J249999D01*
G01*
X134650000Y-90874999D01*
G75*
G02*
X134899999Y-90625000I249999J0D01*
G01*
X137100001Y-90625000D01*
G75*
G02*
X137350000Y-90874999I0J-249999D01*
G01*
X137350000Y-91525001D01*
G75*
G02*
X137100001Y-91775000I-249999J0D01*
G01*
G37*
%TD*%
%TO.C,C11*%
G36*
G01*
X133350001Y-88825000D02*
X131149999Y-88825000D01*
G75*
G02*
X130900000Y-88575001I0J249999D01*
G01*
X130900000Y-87924999D01*
G75*
G02*
X131149999Y-87675000I249999J0D01*
G01*
X133350001Y-87675000D01*
G75*
G02*
X133600000Y-87924999I0J-249999D01*
G01*
X133600000Y-88575001D01*
G75*
G02*
X133350001Y-88825000I-249999J0D01*
G01*
G37*
G36*
G01*
X133350001Y-91775000D02*
X131149999Y-91775000D01*
G75*
G02*
X130900000Y-91525001I0J249999D01*
G01*
X130900000Y-90874999D01*
G75*
G02*
X131149999Y-90625000I249999J0D01*
G01*
X133350001Y-90625000D01*
G75*
G02*
X133600000Y-90874999I0J-249999D01*
G01*
X133600000Y-91525001D01*
G75*
G02*
X133350001Y-91775000I-249999J0D01*
G01*
G37*
%TD*%
%TO.C,C7*%
G36*
G01*
X129600001Y-88825000D02*
X127399999Y-88825000D01*
G75*
G02*
X127150000Y-88575001I0J249999D01*
G01*
X127150000Y-87924999D01*
G75*
G02*
X127399999Y-87675000I249999J0D01*
G01*
X129600001Y-87675000D01*
G75*
G02*
X129850000Y-87924999I0J-249999D01*
G01*
X129850000Y-88575001D01*
G75*
G02*
X129600001Y-88825000I-249999J0D01*
G01*
G37*
G36*
G01*
X129600001Y-91775000D02*
X127399999Y-91775000D01*
G75*
G02*
X127150000Y-91525001I0J249999D01*
G01*
X127150000Y-90874999D01*
G75*
G02*
X127399999Y-90625000I249999J0D01*
G01*
X129600001Y-90625000D01*
G75*
G02*
X129850000Y-90874999I0J-249999D01*
G01*
X129850000Y-91525001D01*
G75*
G02*
X129600001Y-91775000I-249999J0D01*
G01*
G37*
%TD*%
%TO.C,C6*%
G36*
G01*
X144500000Y-102475000D02*
X144500000Y-101525000D01*
G75*
G02*
X144750000Y-101275000I250000J0D01*
G01*
X145250000Y-101275000D01*
G75*
G02*
X145500000Y-101525000I0J-250000D01*
G01*
X145500000Y-102475000D01*
G75*
G02*
X145250000Y-102725000I-250000J0D01*
G01*
X144750000Y-102725000D01*
G75*
G02*
X144500000Y-102475000I0J250000D01*
G01*
G37*
G36*
G01*
X142600000Y-102475000D02*
X142600000Y-101525000D01*
G75*
G02*
X142850000Y-101275000I250000J0D01*
G01*
X143350000Y-101275000D01*
G75*
G02*
X143600000Y-101525000I0J-250000D01*
G01*
X143600000Y-102475000D01*
G75*
G02*
X143350000Y-102725000I-250000J0D01*
G01*
X142850000Y-102725000D01*
G75*
G02*
X142600000Y-102475000I0J250000D01*
G01*
G37*
%TD*%
%TO.C,C5*%
G36*
G01*
X134925000Y-111650001D02*
X134925000Y-110349999D01*
G75*
G02*
X135174999Y-110100000I249999J0D01*
G01*
X135825001Y-110100000D01*
G75*
G02*
X136075000Y-110349999I0J-249999D01*
G01*
X136075000Y-111650001D01*
G75*
G02*
X135825001Y-111900000I-249999J0D01*
G01*
X135174999Y-111900000D01*
G75*
G02*
X134925000Y-111650001I0J249999D01*
G01*
G37*
G36*
G01*
X131975000Y-111650001D02*
X131975000Y-110349999D01*
G75*
G02*
X132224999Y-110100000I249999J0D01*
G01*
X132875001Y-110100000D01*
G75*
G02*
X133125000Y-110349999I0J-249999D01*
G01*
X133125000Y-111650001D01*
G75*
G02*
X132875001Y-111900000I-249999J0D01*
G01*
X132224999Y-111900000D01*
G75*
G02*
X131975000Y-111650001I0J249999D01*
G01*
G37*
%TD*%
%TO.C,C9*%
G36*
G01*
X166350000Y-85275000D02*
X166350000Y-86225000D01*
G75*
G02*
X166100000Y-86475000I-250000J0D01*
G01*
X165600000Y-86475000D01*
G75*
G02*
X165350000Y-86225000I0J250000D01*
G01*
X165350000Y-85275000D01*
G75*
G02*
X165600000Y-85025000I250000J0D01*
G01*
X166100000Y-85025000D01*
G75*
G02*
X166350000Y-85275000I0J-250000D01*
G01*
G37*
G36*
G01*
X168250000Y-85275000D02*
X168250000Y-86225000D01*
G75*
G02*
X168000000Y-86475000I-250000J0D01*
G01*
X167500000Y-86475000D01*
G75*
G02*
X167250000Y-86225000I0J250000D01*
G01*
X167250000Y-85275000D01*
G75*
G02*
X167500000Y-85025000I250000J0D01*
G01*
X168000000Y-85025000D01*
G75*
G02*
X168250000Y-85275000I0J-250000D01*
G01*
G37*
%TD*%
%TO.C,C4*%
G36*
G01*
X147525000Y-108050000D02*
X148475000Y-108050000D01*
G75*
G02*
X148725000Y-108300000I0J-250000D01*
G01*
X148725000Y-108800000D01*
G75*
G02*
X148475000Y-109050000I-250000J0D01*
G01*
X147525000Y-109050000D01*
G75*
G02*
X147275000Y-108800000I0J250000D01*
G01*
X147275000Y-108300000D01*
G75*
G02*
X147525000Y-108050000I250000J0D01*
G01*
G37*
G36*
G01*
X147525000Y-106150000D02*
X148475000Y-106150000D01*
G75*
G02*
X148725000Y-106400000I0J-250000D01*
G01*
X148725000Y-106900000D01*
G75*
G02*
X148475000Y-107150000I-250000J0D01*
G01*
X147525000Y-107150000D01*
G75*
G02*
X147275000Y-106900000I0J250000D01*
G01*
X147275000Y-106400000D01*
G75*
G02*
X147525000Y-106150000I250000J0D01*
G01*
G37*
%TD*%
%TO.C,C3*%
G36*
G01*
X145025000Y-108050000D02*
X145975000Y-108050000D01*
G75*
G02*
X146225000Y-108300000I0J-250000D01*
G01*
X146225000Y-108800000D01*
G75*
G02*
X145975000Y-109050000I-250000J0D01*
G01*
X145025000Y-109050000D01*
G75*
G02*
X144775000Y-108800000I0J250000D01*
G01*
X144775000Y-108300000D01*
G75*
G02*
X145025000Y-108050000I250000J0D01*
G01*
G37*
G36*
G01*
X145025000Y-106150000D02*
X145975000Y-106150000D01*
G75*
G02*
X146225000Y-106400000I0J-250000D01*
G01*
X146225000Y-106900000D01*
G75*
G02*
X145975000Y-107150000I-250000J0D01*
G01*
X145025000Y-107150000D01*
G75*
G02*
X144775000Y-106900000I0J250000D01*
G01*
X144775000Y-106400000D01*
G75*
G02*
X145025000Y-106150000I250000J0D01*
G01*
G37*
%TD*%
%TO.C,C10*%
G36*
G01*
X129600001Y-106100000D02*
X127399999Y-106100000D01*
G75*
G02*
X127150000Y-105850001I0J249999D01*
G01*
X127150000Y-105199999D01*
G75*
G02*
X127399999Y-104950000I249999J0D01*
G01*
X129600001Y-104950000D01*
G75*
G02*
X129850000Y-105199999I0J-249999D01*
G01*
X129850000Y-105850001D01*
G75*
G02*
X129600001Y-106100000I-249999J0D01*
G01*
G37*
G36*
G01*
X129600001Y-109050000D02*
X127399999Y-109050000D01*
G75*
G02*
X127150000Y-108800001I0J249999D01*
G01*
X127150000Y-108149999D01*
G75*
G02*
X127399999Y-107900000I249999J0D01*
G01*
X129600001Y-107900000D01*
G75*
G02*
X129850000Y-108149999I0J-249999D01*
G01*
X129850000Y-108800001D01*
G75*
G02*
X129600001Y-109050000I-249999J0D01*
G01*
G37*
%TD*%
%TO.C,C8*%
G36*
G01*
X164225000Y-88350000D02*
X163275000Y-88350000D01*
G75*
G02*
X163025000Y-88100000I0J250000D01*
G01*
X163025000Y-87600000D01*
G75*
G02*
X163275000Y-87350000I250000J0D01*
G01*
X164225000Y-87350000D01*
G75*
G02*
X164475000Y-87600000I0J-250000D01*
G01*
X164475000Y-88100000D01*
G75*
G02*
X164225000Y-88350000I-250000J0D01*
G01*
G37*
G36*
G01*
X164225000Y-90250000D02*
X163275000Y-90250000D01*
G75*
G02*
X163025000Y-90000000I0J250000D01*
G01*
X163025000Y-89500000D01*
G75*
G02*
X163275000Y-89250000I250000J0D01*
G01*
X164225000Y-89250000D01*
G75*
G02*
X164475000Y-89500000I0J-250000D01*
G01*
X164475000Y-90000000D01*
G75*
G02*
X164225000Y-90250000I-250000J0D01*
G01*
G37*
%TD*%
%TO.C,C2*%
G36*
G01*
X133350001Y-106100000D02*
X131149999Y-106100000D01*
G75*
G02*
X130900000Y-105850001I0J249999D01*
G01*
X130900000Y-105199999D01*
G75*
G02*
X131149999Y-104950000I249999J0D01*
G01*
X133350001Y-104950000D01*
G75*
G02*
X133600000Y-105199999I0J-249999D01*
G01*
X133600000Y-105850001D01*
G75*
G02*
X133350001Y-106100000I-249999J0D01*
G01*
G37*
G36*
G01*
X133350001Y-109050000D02*
X131149999Y-109050000D01*
G75*
G02*
X130900000Y-108800001I0J249999D01*
G01*
X130900000Y-108149999D01*
G75*
G02*
X131149999Y-107900000I249999J0D01*
G01*
X133350001Y-107900000D01*
G75*
G02*
X133600000Y-108149999I0J-249999D01*
G01*
X133600000Y-108800001D01*
G75*
G02*
X133350001Y-109050000I-249999J0D01*
G01*
G37*
%TD*%
%TO.C,U1*%
G36*
G01*
X164125000Y-107375000D02*
X164125000Y-107575000D01*
G75*
G02*
X164025000Y-107675000I-100000J0D01*
G01*
X162750000Y-107675000D01*
G75*
G02*
X162650000Y-107575000I0J100000D01*
G01*
X162650000Y-107375000D01*
G75*
G02*
X162750000Y-107275000I100000J0D01*
G01*
X164025000Y-107275000D01*
G75*
G02*
X164125000Y-107375000I0J-100000D01*
G01*
G37*
G36*
G01*
X164125000Y-106725000D02*
X164125000Y-106925000D01*
G75*
G02*
X164025000Y-107025000I-100000J0D01*
G01*
X162750000Y-107025000D01*
G75*
G02*
X162650000Y-106925000I0J100000D01*
G01*
X162650000Y-106725000D01*
G75*
G02*
X162750000Y-106625000I100000J0D01*
G01*
X164025000Y-106625000D01*
G75*
G02*
X164125000Y-106725000I0J-100000D01*
G01*
G37*
G36*
G01*
X164125000Y-106075000D02*
X164125000Y-106275000D01*
G75*
G02*
X164025000Y-106375000I-100000J0D01*
G01*
X162750000Y-106375000D01*
G75*
G02*
X162650000Y-106275000I0J100000D01*
G01*
X162650000Y-106075000D01*
G75*
G02*
X162750000Y-105975000I100000J0D01*
G01*
X164025000Y-105975000D01*
G75*
G02*
X164125000Y-106075000I0J-100000D01*
G01*
G37*
G36*
G01*
X164125000Y-105425000D02*
X164125000Y-105625000D01*
G75*
G02*
X164025000Y-105725000I-100000J0D01*
G01*
X162750000Y-105725000D01*
G75*
G02*
X162650000Y-105625000I0J100000D01*
G01*
X162650000Y-105425000D01*
G75*
G02*
X162750000Y-105325000I100000J0D01*
G01*
X164025000Y-105325000D01*
G75*
G02*
X164125000Y-105425000I0J-100000D01*
G01*
G37*
G36*
G01*
X164125000Y-104775000D02*
X164125000Y-104975000D01*
G75*
G02*
X164025000Y-105075000I-100000J0D01*
G01*
X162750000Y-105075000D01*
G75*
G02*
X162650000Y-104975000I0J100000D01*
G01*
X162650000Y-104775000D01*
G75*
G02*
X162750000Y-104675000I100000J0D01*
G01*
X164025000Y-104675000D01*
G75*
G02*
X164125000Y-104775000I0J-100000D01*
G01*
G37*
G36*
G01*
X164125000Y-104125000D02*
X164125000Y-104325000D01*
G75*
G02*
X164025000Y-104425000I-100000J0D01*
G01*
X162750000Y-104425000D01*
G75*
G02*
X162650000Y-104325000I0J100000D01*
G01*
X162650000Y-104125000D01*
G75*
G02*
X162750000Y-104025000I100000J0D01*
G01*
X164025000Y-104025000D01*
G75*
G02*
X164125000Y-104125000I0J-100000D01*
G01*
G37*
G36*
G01*
X164125000Y-103475000D02*
X164125000Y-103675000D01*
G75*
G02*
X164025000Y-103775000I-100000J0D01*
G01*
X162750000Y-103775000D01*
G75*
G02*
X162650000Y-103675000I0J100000D01*
G01*
X162650000Y-103475000D01*
G75*
G02*
X162750000Y-103375000I100000J0D01*
G01*
X164025000Y-103375000D01*
G75*
G02*
X164125000Y-103475000I0J-100000D01*
G01*
G37*
G36*
G01*
X164125000Y-102825000D02*
X164125000Y-103025000D01*
G75*
G02*
X164025000Y-103125000I-100000J0D01*
G01*
X162750000Y-103125000D01*
G75*
G02*
X162650000Y-103025000I0J100000D01*
G01*
X162650000Y-102825000D01*
G75*
G02*
X162750000Y-102725000I100000J0D01*
G01*
X164025000Y-102725000D01*
G75*
G02*
X164125000Y-102825000I0J-100000D01*
G01*
G37*
G36*
G01*
X164125000Y-102175000D02*
X164125000Y-102375000D01*
G75*
G02*
X164025000Y-102475000I-100000J0D01*
G01*
X162750000Y-102475000D01*
G75*
G02*
X162650000Y-102375000I0J100000D01*
G01*
X162650000Y-102175000D01*
G75*
G02*
X162750000Y-102075000I100000J0D01*
G01*
X164025000Y-102075000D01*
G75*
G02*
X164125000Y-102175000I0J-100000D01*
G01*
G37*
G36*
G01*
X164125000Y-101525000D02*
X164125000Y-101725000D01*
G75*
G02*
X164025000Y-101825000I-100000J0D01*
G01*
X162750000Y-101825000D01*
G75*
G02*
X162650000Y-101725000I0J100000D01*
G01*
X162650000Y-101525000D01*
G75*
G02*
X162750000Y-101425000I100000J0D01*
G01*
X164025000Y-101425000D01*
G75*
G02*
X164125000Y-101525000I0J-100000D01*
G01*
G37*
G36*
G01*
X164125000Y-100875000D02*
X164125000Y-101075000D01*
G75*
G02*
X164025000Y-101175000I-100000J0D01*
G01*
X162750000Y-101175000D01*
G75*
G02*
X162650000Y-101075000I0J100000D01*
G01*
X162650000Y-100875000D01*
G75*
G02*
X162750000Y-100775000I100000J0D01*
G01*
X164025000Y-100775000D01*
G75*
G02*
X164125000Y-100875000I0J-100000D01*
G01*
G37*
G36*
G01*
X164125000Y-100225000D02*
X164125000Y-100425000D01*
G75*
G02*
X164025000Y-100525000I-100000J0D01*
G01*
X162750000Y-100525000D01*
G75*
G02*
X162650000Y-100425000I0J100000D01*
G01*
X162650000Y-100225000D01*
G75*
G02*
X162750000Y-100125000I100000J0D01*
G01*
X164025000Y-100125000D01*
G75*
G02*
X164125000Y-100225000I0J-100000D01*
G01*
G37*
G36*
G01*
X164125000Y-99575000D02*
X164125000Y-99775000D01*
G75*
G02*
X164025000Y-99875000I-100000J0D01*
G01*
X162750000Y-99875000D01*
G75*
G02*
X162650000Y-99775000I0J100000D01*
G01*
X162650000Y-99575000D01*
G75*
G02*
X162750000Y-99475000I100000J0D01*
G01*
X164025000Y-99475000D01*
G75*
G02*
X164125000Y-99575000I0J-100000D01*
G01*
G37*
G36*
G01*
X164125000Y-98925000D02*
X164125000Y-99125000D01*
G75*
G02*
X164025000Y-99225000I-100000J0D01*
G01*
X162750000Y-99225000D01*
G75*
G02*
X162650000Y-99125000I0J100000D01*
G01*
X162650000Y-98925000D01*
G75*
G02*
X162750000Y-98825000I100000J0D01*
G01*
X164025000Y-98825000D01*
G75*
G02*
X164125000Y-98925000I0J-100000D01*
G01*
G37*
G36*
G01*
X169850000Y-98925000D02*
X169850000Y-99125000D01*
G75*
G02*
X169750000Y-99225000I-100000J0D01*
G01*
X168475000Y-99225000D01*
G75*
G02*
X168375000Y-99125000I0J100000D01*
G01*
X168375000Y-98925000D01*
G75*
G02*
X168475000Y-98825000I100000J0D01*
G01*
X169750000Y-98825000D01*
G75*
G02*
X169850000Y-98925000I0J-100000D01*
G01*
G37*
G36*
G01*
X169850000Y-99575000D02*
X169850000Y-99775000D01*
G75*
G02*
X169750000Y-99875000I-100000J0D01*
G01*
X168475000Y-99875000D01*
G75*
G02*
X168375000Y-99775000I0J100000D01*
G01*
X168375000Y-99575000D01*
G75*
G02*
X168475000Y-99475000I100000J0D01*
G01*
X169750000Y-99475000D01*
G75*
G02*
X169850000Y-99575000I0J-100000D01*
G01*
G37*
G36*
G01*
X169850000Y-100225000D02*
X169850000Y-100425000D01*
G75*
G02*
X169750000Y-100525000I-100000J0D01*
G01*
X168475000Y-100525000D01*
G75*
G02*
X168375000Y-100425000I0J100000D01*
G01*
X168375000Y-100225000D01*
G75*
G02*
X168475000Y-100125000I100000J0D01*
G01*
X169750000Y-100125000D01*
G75*
G02*
X169850000Y-100225000I0J-100000D01*
G01*
G37*
G36*
G01*
X169850000Y-100875000D02*
X169850000Y-101075000D01*
G75*
G02*
X169750000Y-101175000I-100000J0D01*
G01*
X168475000Y-101175000D01*
G75*
G02*
X168375000Y-101075000I0J100000D01*
G01*
X168375000Y-100875000D01*
G75*
G02*
X168475000Y-100775000I100000J0D01*
G01*
X169750000Y-100775000D01*
G75*
G02*
X169850000Y-100875000I0J-100000D01*
G01*
G37*
G36*
G01*
X169850000Y-101525000D02*
X169850000Y-101725000D01*
G75*
G02*
X169750000Y-101825000I-100000J0D01*
G01*
X168475000Y-101825000D01*
G75*
G02*
X168375000Y-101725000I0J100000D01*
G01*
X168375000Y-101525000D01*
G75*
G02*
X168475000Y-101425000I100000J0D01*
G01*
X169750000Y-101425000D01*
G75*
G02*
X169850000Y-101525000I0J-100000D01*
G01*
G37*
G36*
G01*
X169850000Y-102175000D02*
X169850000Y-102375000D01*
G75*
G02*
X169750000Y-102475000I-100000J0D01*
G01*
X168475000Y-102475000D01*
G75*
G02*
X168375000Y-102375000I0J100000D01*
G01*
X168375000Y-102175000D01*
G75*
G02*
X168475000Y-102075000I100000J0D01*
G01*
X169750000Y-102075000D01*
G75*
G02*
X169850000Y-102175000I0J-100000D01*
G01*
G37*
G36*
G01*
X169850000Y-102825000D02*
X169850000Y-103025000D01*
G75*
G02*
X169750000Y-103125000I-100000J0D01*
G01*
X168475000Y-103125000D01*
G75*
G02*
X168375000Y-103025000I0J100000D01*
G01*
X168375000Y-102825000D01*
G75*
G02*
X168475000Y-102725000I100000J0D01*
G01*
X169750000Y-102725000D01*
G75*
G02*
X169850000Y-102825000I0J-100000D01*
G01*
G37*
G36*
G01*
X169850000Y-103475000D02*
X169850000Y-103675000D01*
G75*
G02*
X169750000Y-103775000I-100000J0D01*
G01*
X168475000Y-103775000D01*
G75*
G02*
X168375000Y-103675000I0J100000D01*
G01*
X168375000Y-103475000D01*
G75*
G02*
X168475000Y-103375000I100000J0D01*
G01*
X169750000Y-103375000D01*
G75*
G02*
X169850000Y-103475000I0J-100000D01*
G01*
G37*
G36*
G01*
X169850000Y-104125000D02*
X169850000Y-104325000D01*
G75*
G02*
X169750000Y-104425000I-100000J0D01*
G01*
X168475000Y-104425000D01*
G75*
G02*
X168375000Y-104325000I0J100000D01*
G01*
X168375000Y-104125000D01*
G75*
G02*
X168475000Y-104025000I100000J0D01*
G01*
X169750000Y-104025000D01*
G75*
G02*
X169850000Y-104125000I0J-100000D01*
G01*
G37*
G36*
G01*
X169850000Y-104775000D02*
X169850000Y-104975000D01*
G75*
G02*
X169750000Y-105075000I-100000J0D01*
G01*
X168475000Y-105075000D01*
G75*
G02*
X168375000Y-104975000I0J100000D01*
G01*
X168375000Y-104775000D01*
G75*
G02*
X168475000Y-104675000I100000J0D01*
G01*
X169750000Y-104675000D01*
G75*
G02*
X169850000Y-104775000I0J-100000D01*
G01*
G37*
G36*
G01*
X169850000Y-105425000D02*
X169850000Y-105625000D01*
G75*
G02*
X169750000Y-105725000I-100000J0D01*
G01*
X168475000Y-105725000D01*
G75*
G02*
X168375000Y-105625000I0J100000D01*
G01*
X168375000Y-105425000D01*
G75*
G02*
X168475000Y-105325000I100000J0D01*
G01*
X169750000Y-105325000D01*
G75*
G02*
X169850000Y-105425000I0J-100000D01*
G01*
G37*
G36*
G01*
X169850000Y-106075000D02*
X169850000Y-106275000D01*
G75*
G02*
X169750000Y-106375000I-100000J0D01*
G01*
X168475000Y-106375000D01*
G75*
G02*
X168375000Y-106275000I0J100000D01*
G01*
X168375000Y-106075000D01*
G75*
G02*
X168475000Y-105975000I100000J0D01*
G01*
X169750000Y-105975000D01*
G75*
G02*
X169850000Y-106075000I0J-100000D01*
G01*
G37*
G36*
G01*
X169850000Y-106725000D02*
X169850000Y-106925000D01*
G75*
G02*
X169750000Y-107025000I-100000J0D01*
G01*
X168475000Y-107025000D01*
G75*
G02*
X168375000Y-106925000I0J100000D01*
G01*
X168375000Y-106725000D01*
G75*
G02*
X168475000Y-106625000I100000J0D01*
G01*
X169750000Y-106625000D01*
G75*
G02*
X169850000Y-106725000I0J-100000D01*
G01*
G37*
G36*
G01*
X169850000Y-107375000D02*
X169850000Y-107575000D01*
G75*
G02*
X169750000Y-107675000I-100000J0D01*
G01*
X168475000Y-107675000D01*
G75*
G02*
X168375000Y-107575000I0J100000D01*
G01*
X168375000Y-107375000D01*
G75*
G02*
X168475000Y-107275000I100000J0D01*
G01*
X169750000Y-107275000D01*
G75*
G02*
X169850000Y-107375000I0J-100000D01*
G01*
G37*
%TD*%
%TO.C,R4*%
G36*
G01*
X162799998Y-96237500D02*
X163700002Y-96237500D01*
G75*
G02*
X163950000Y-96487498I0J-249998D01*
G01*
X163950000Y-97012502D01*
G75*
G02*
X163700002Y-97262500I-249998J0D01*
G01*
X162799998Y-97262500D01*
G75*
G02*
X162550000Y-97012502I0J249998D01*
G01*
X162550000Y-96487498D01*
G75*
G02*
X162799998Y-96237500I249998J0D01*
G01*
G37*
G36*
G01*
X162799998Y-94412500D02*
X163700002Y-94412500D01*
G75*
G02*
X163950000Y-94662498I0J-249998D01*
G01*
X163950000Y-95187502D01*
G75*
G02*
X163700002Y-95437500I-249998J0D01*
G01*
X162799998Y-95437500D01*
G75*
G02*
X162550000Y-95187502I0J249998D01*
G01*
X162550000Y-94662498D01*
G75*
G02*
X162799998Y-94412500I249998J0D01*
G01*
G37*
%TD*%
D12*
%TO.C,J14*%
X172000000Y-92790000D03*
D13*
X172000000Y-90250000D03*
%TD*%
D12*
%TO.C,J12*%
X125920000Y-69000000D03*
X128460000Y-69000000D03*
X131000000Y-69000000D03*
D13*
X133540000Y-69000000D03*
%TD*%
D12*
%TO.C,J11*%
X138420000Y-69000000D03*
X140960000Y-69000000D03*
X143500000Y-69000000D03*
D13*
X146040000Y-69000000D03*
%TD*%
D12*
%TO.C,J10*%
X151000000Y-136220000D03*
X151000000Y-138760000D03*
D13*
X151000000Y-141300000D03*
%TD*%
D12*
%TO.C,J9*%
X158500000Y-136220000D03*
X158500000Y-138760000D03*
D13*
X158500000Y-141300000D03*
%TD*%
D12*
%TO.C,J8*%
X141000000Y-136220000D03*
X141000000Y-138760000D03*
D13*
X141000000Y-141300000D03*
%TD*%
D12*
%TO.C,J7*%
X146000000Y-136220000D03*
X146000000Y-138760000D03*
D13*
X146000000Y-141300000D03*
%TD*%
D12*
%TO.C,J6*%
X163500000Y-136220000D03*
X163500000Y-138760000D03*
D13*
X163500000Y-141300000D03*
%TD*%
D12*
%TO.C,J4*%
X134000000Y-141370000D03*
X134000000Y-138830000D03*
X134000000Y-136290000D03*
D13*
X134000000Y-133750000D03*
%TD*%
D12*
%TO.C,J3*%
X126500000Y-141330000D03*
X126500000Y-138790000D03*
X126500000Y-136250000D03*
D13*
X126500000Y-133710000D03*
%TD*%
%TO.C,C1*%
G36*
G01*
X162750000Y-109025000D02*
X162750000Y-109975000D01*
G75*
G02*
X162500000Y-110225000I-250000J0D01*
G01*
X162000000Y-110225000D01*
G75*
G02*
X161750000Y-109975000I0J250000D01*
G01*
X161750000Y-109025000D01*
G75*
G02*
X162000000Y-108775000I250000J0D01*
G01*
X162500000Y-108775000D01*
G75*
G02*
X162750000Y-109025000I0J-250000D01*
G01*
G37*
G36*
G01*
X164650000Y-109025000D02*
X164650000Y-109975000D01*
G75*
G02*
X164400000Y-110225000I-250000J0D01*
G01*
X163900000Y-110225000D01*
G75*
G02*
X163650000Y-109975000I0J250000D01*
G01*
X163650000Y-109025000D01*
G75*
G02*
X163900000Y-108775000I250000J0D01*
G01*
X164400000Y-108775000D01*
G75*
G02*
X164650000Y-109025000I0J-250000D01*
G01*
G37*
%TD*%
D25*
%TO.C,J1*%
X131270000Y-80270000D03*
D26*
X131270000Y-77730000D03*
X133810000Y-80270000D03*
X133810000Y-77730000D03*
X136350000Y-80270000D03*
X136350000Y-77730000D03*
X138890000Y-80270000D03*
X138890000Y-77730000D03*
X141430000Y-80270000D03*
X141430000Y-77730000D03*
X143970000Y-80270000D03*
X143970000Y-77730000D03*
X146510000Y-80270000D03*
X146510000Y-77730000D03*
X149050000Y-80270000D03*
X149050000Y-77730000D03*
X151590000Y-80270000D03*
X151590000Y-77730000D03*
X154130000Y-80270000D03*
X154130000Y-77730000D03*
X156670000Y-80270000D03*
X156670000Y-77730000D03*
X159210000Y-80270000D03*
X159210000Y-77730000D03*
X161750000Y-80270000D03*
X161750000Y-77730000D03*
X164290000Y-80270000D03*
X164290000Y-77730000D03*
X166830000Y-80270000D03*
X166830000Y-77730000D03*
X169370000Y-80270000D03*
X169370000Y-77730000D03*
X171910000Y-80270000D03*
X171910000Y-77730000D03*
X174450000Y-80270000D03*
X174450000Y-77730000D03*
X176990000Y-80270000D03*
X176990000Y-77730000D03*
X179530000Y-80270000D03*
X179530000Y-77730000D03*
%TD*%
D27*
%TO.C,*%
X184400000Y-79000000D03*
%TD*%
%TO.C,*%
X184400000Y-128000000D03*
%TD*%
%TO.C,*%
X126400000Y-128000000D03*
%TD*%
%TO.C,*%
X126400000Y-79000000D03*
%TD*%
M02*
