%TF.GenerationSoftware,KiCad,Pcbnew,5.1.9*%
%TF.CreationDate,2021-03-12T16:49:57+01:00*%
%TF.ProjectId,monkey-rpi-header-pcb,6d6f6e6b-6579-42d7-9270-692d68656164,rev?*%
%TF.SameCoordinates,Original*%
%TF.FileFunction,Soldermask,Bot*%
%TF.FilePolarity,Negative*%
%FSLAX46Y46*%
G04 Gerber Fmt 4.6, Leading zero omitted, Abs format (unit mm)*
G04 Created by KiCad (PCBNEW 5.1.9) date 2021-03-12 16:49:57*
%MOMM*%
%LPD*%
G01*
G04 APERTURE LIST*
%ADD10C,0.100000*%
%ADD11O,1.700000X1.700000*%
%ADD12R,1.700000X1.700000*%
%ADD13O,1.600000X1.600000*%
%ADD14R,1.600000X1.600000*%
%ADD15C,0.600000*%
%ADD16O,3.600000X1.800000*%
%ADD17R,1.727200X1.727200*%
%ADD18O,1.727200X1.727200*%
%ADD19C,6.200000*%
G04 APERTURE END LIST*
D10*
%TO.C,JP10*%
G36*
X147050000Y-74050000D02*
G01*
X147050000Y-73550000D01*
X147050602Y-73550000D01*
X147050602Y-73525466D01*
X147055412Y-73476635D01*
X147064984Y-73428510D01*
X147079228Y-73381555D01*
X147098005Y-73336222D01*
X147121136Y-73292949D01*
X147148396Y-73252150D01*
X147179524Y-73214221D01*
X147214221Y-73179524D01*
X147252150Y-73148396D01*
X147292949Y-73121136D01*
X147336222Y-73098005D01*
X147381555Y-73079228D01*
X147428510Y-73064984D01*
X147476635Y-73055412D01*
X147525466Y-73050602D01*
X147550000Y-73050602D01*
X147550000Y-73050000D01*
X148050000Y-73050000D01*
X148050000Y-73050602D01*
X148074534Y-73050602D01*
X148123365Y-73055412D01*
X148171490Y-73064984D01*
X148218445Y-73079228D01*
X148263778Y-73098005D01*
X148307051Y-73121136D01*
X148347850Y-73148396D01*
X148385779Y-73179524D01*
X148420476Y-73214221D01*
X148451604Y-73252150D01*
X148478864Y-73292949D01*
X148501995Y-73336222D01*
X148520772Y-73381555D01*
X148535016Y-73428510D01*
X148544588Y-73476635D01*
X148549398Y-73525466D01*
X148549398Y-73550000D01*
X148550000Y-73550000D01*
X148550000Y-74050000D01*
X147050000Y-74050000D01*
G37*
G36*
X148549398Y-74850000D02*
G01*
X148549398Y-74874534D01*
X148544588Y-74923365D01*
X148535016Y-74971490D01*
X148520772Y-75018445D01*
X148501995Y-75063778D01*
X148478864Y-75107051D01*
X148451604Y-75147850D01*
X148420476Y-75185779D01*
X148385779Y-75220476D01*
X148347850Y-75251604D01*
X148307051Y-75278864D01*
X148263778Y-75301995D01*
X148218445Y-75320772D01*
X148171490Y-75335016D01*
X148123365Y-75344588D01*
X148074534Y-75349398D01*
X148050000Y-75349398D01*
X148050000Y-75350000D01*
X147550000Y-75350000D01*
X147550000Y-75349398D01*
X147525466Y-75349398D01*
X147476635Y-75344588D01*
X147428510Y-75335016D01*
X147381555Y-75320772D01*
X147336222Y-75301995D01*
X147292949Y-75278864D01*
X147252150Y-75251604D01*
X147214221Y-75220476D01*
X147179524Y-75185779D01*
X147148396Y-75147850D01*
X147121136Y-75107051D01*
X147098005Y-75063778D01*
X147079228Y-75018445D01*
X147064984Y-74971490D01*
X147055412Y-74923365D01*
X147050602Y-74874534D01*
X147050602Y-74850000D01*
X147050000Y-74850000D01*
X147050000Y-74350000D01*
X148550000Y-74350000D01*
X148550000Y-74850000D01*
X148549398Y-74850000D01*
G37*
%TD*%
D11*
%TO.C,J27*%
X185500000Y-84000000D03*
D12*
X185500000Y-86540000D03*
%TD*%
D11*
%TO.C,J26*%
X181000000Y-84000000D03*
D12*
X181000000Y-86540000D03*
%TD*%
D11*
%TO.C,J25*%
X176500000Y-84000000D03*
D12*
X176500000Y-86540000D03*
%TD*%
D11*
%TO.C,J24*%
X172000000Y-84000000D03*
D12*
X172000000Y-86540000D03*
%TD*%
D11*
%TO.C,J23*%
X182750000Y-66670000D03*
X182750000Y-69210000D03*
D12*
X182750000Y-71750000D03*
%TD*%
D11*
%TO.C,J22*%
X176750000Y-66670000D03*
X176750000Y-69210000D03*
D12*
X176750000Y-71750000D03*
%TD*%
D11*
%TO.C,J18*%
X170750000Y-66670000D03*
X170750000Y-69210000D03*
D12*
X170750000Y-71750000D03*
%TD*%
D11*
%TO.C,J5*%
X164250000Y-66670000D03*
X164250000Y-69210000D03*
D12*
X164250000Y-71750000D03*
%TD*%
D11*
%TO.C,J21*%
X185500000Y-92790000D03*
D12*
X185500000Y-90250000D03*
%TD*%
D11*
%TO.C,J20*%
X181000000Y-92790000D03*
D12*
X181000000Y-90250000D03*
%TD*%
D11*
%TO.C,J19*%
X176500000Y-92790000D03*
D12*
X176500000Y-90250000D03*
%TD*%
D11*
%TO.C,J17*%
X178500000Y-136200000D03*
X178500000Y-138740000D03*
D12*
X178500000Y-141280000D03*
%TD*%
D11*
%TO.C,J16*%
X173600000Y-136200000D03*
X173600000Y-138740000D03*
D12*
X173600000Y-141280000D03*
%TD*%
D11*
%TO.C,J15*%
X168500000Y-136200000D03*
X168500000Y-138740000D03*
D12*
X168500000Y-141280000D03*
%TD*%
D13*
%TO.C,A1*%
X133960000Y-115800000D03*
X151740000Y-128500000D03*
X136500000Y-115800000D03*
X149200000Y-128500000D03*
X139040000Y-115800000D03*
X146660000Y-128500000D03*
X141580000Y-115800000D03*
X144120000Y-128500000D03*
X144120000Y-115800000D03*
X141580000Y-128500000D03*
X146660000Y-115800000D03*
X139040000Y-128500000D03*
X149200000Y-115800000D03*
X136500000Y-128500000D03*
X151740000Y-115800000D03*
D14*
X133960000Y-128500000D03*
%TD*%
D11*
%TO.C,J13*%
X151130000Y-69000000D03*
X153670000Y-69000000D03*
X156210000Y-69000000D03*
D12*
X158750000Y-69000000D03*
%TD*%
D15*
%TO.C,U2*%
X139150000Y-108950000D03*
X139150000Y-107650000D03*
X137850000Y-107650000D03*
X137850000Y-108950000D03*
X139150000Y-105050000D03*
X139150000Y-106350000D03*
X137850000Y-106350000D03*
X137850000Y-105050000D03*
%TD*%
D13*
%TO.C,A2*%
X157500000Y-115800000D03*
X175280000Y-128500000D03*
X160040000Y-115800000D03*
X172740000Y-128500000D03*
X162580000Y-115800000D03*
X170200000Y-128500000D03*
X165120000Y-115800000D03*
X167660000Y-128500000D03*
X167660000Y-115800000D03*
X165120000Y-128500000D03*
X170200000Y-115800000D03*
X162580000Y-128500000D03*
X172740000Y-115800000D03*
X160040000Y-128500000D03*
X175280000Y-115800000D03*
D14*
X157500000Y-128500000D03*
%TD*%
D16*
%TO.C,J2*%
X130600000Y-100710000D03*
G36*
G01*
X129050000Y-96000000D02*
X132150000Y-96000000D01*
G75*
G02*
X132400000Y-96250000I0J-250000D01*
G01*
X132400000Y-97550000D01*
G75*
G02*
X132150000Y-97800000I-250000J0D01*
G01*
X129050000Y-97800000D01*
G75*
G02*
X128800000Y-97550000I0J250000D01*
G01*
X128800000Y-96250000D01*
G75*
G02*
X129050000Y-96000000I250000J0D01*
G01*
G37*
%TD*%
D11*
%TO.C,J14*%
X172000000Y-92790000D03*
D12*
X172000000Y-90250000D03*
%TD*%
D11*
%TO.C,J12*%
X125920000Y-69000000D03*
X128460000Y-69000000D03*
X131000000Y-69000000D03*
D12*
X133540000Y-69000000D03*
%TD*%
D11*
%TO.C,J11*%
X138420000Y-69000000D03*
X140960000Y-69000000D03*
X143500000Y-69000000D03*
D12*
X146040000Y-69000000D03*
%TD*%
D11*
%TO.C,J10*%
X151000000Y-136220000D03*
X151000000Y-138760000D03*
D12*
X151000000Y-141300000D03*
%TD*%
D11*
%TO.C,J9*%
X158500000Y-136220000D03*
X158500000Y-138760000D03*
D12*
X158500000Y-141300000D03*
%TD*%
D11*
%TO.C,J8*%
X141000000Y-136220000D03*
X141000000Y-138760000D03*
D12*
X141000000Y-141300000D03*
%TD*%
D11*
%TO.C,J7*%
X146000000Y-136220000D03*
X146000000Y-138760000D03*
D12*
X146000000Y-141300000D03*
%TD*%
D11*
%TO.C,J6*%
X163500000Y-136220000D03*
X163500000Y-138760000D03*
D12*
X163500000Y-141300000D03*
%TD*%
D11*
%TO.C,J4*%
X134000000Y-141370000D03*
X134000000Y-138830000D03*
X134000000Y-136290000D03*
D12*
X134000000Y-133750000D03*
%TD*%
D11*
%TO.C,J3*%
X126500000Y-141330000D03*
X126500000Y-138790000D03*
X126500000Y-136250000D03*
D12*
X126500000Y-133710000D03*
%TD*%
D17*
%TO.C,J1*%
X131270000Y-80270000D03*
D18*
X131270000Y-77730000D03*
X133810000Y-80270000D03*
X133810000Y-77730000D03*
X136350000Y-80270000D03*
X136350000Y-77730000D03*
X138890000Y-80270000D03*
X138890000Y-77730000D03*
X141430000Y-80270000D03*
X141430000Y-77730000D03*
X143970000Y-80270000D03*
X143970000Y-77730000D03*
X146510000Y-80270000D03*
X146510000Y-77730000D03*
X149050000Y-80270000D03*
X149050000Y-77730000D03*
X151590000Y-80270000D03*
X151590000Y-77730000D03*
X154130000Y-80270000D03*
X154130000Y-77730000D03*
X156670000Y-80270000D03*
X156670000Y-77730000D03*
X159210000Y-80270000D03*
X159210000Y-77730000D03*
X161750000Y-80270000D03*
X161750000Y-77730000D03*
X164290000Y-80270000D03*
X164290000Y-77730000D03*
X166830000Y-80270000D03*
X166830000Y-77730000D03*
X169370000Y-80270000D03*
X169370000Y-77730000D03*
X171910000Y-80270000D03*
X171910000Y-77730000D03*
X174450000Y-80270000D03*
X174450000Y-77730000D03*
X176990000Y-80270000D03*
X176990000Y-77730000D03*
X179530000Y-80270000D03*
X179530000Y-77730000D03*
%TD*%
D19*
%TO.C,*%
X184400000Y-79000000D03*
%TD*%
%TO.C,*%
X184400000Y-128000000D03*
%TD*%
%TO.C,*%
X126400000Y-128000000D03*
%TD*%
%TO.C,*%
X126400000Y-79000000D03*
%TD*%
M02*
