M48
; DRILL file {KiCad 5.1.9} date Fri Mar 12 16:50:08 2021
; FORMAT={-:-/ absolute / inch / decimal}
; #@! TF.CreationDate,2021-03-12T16:50:08+01:00
; #@! TF.GenerationSoftware,Kicad,Pcbnew,5.1.9
; #@! TF.FileFunction,Plated,1,2,PTH
FMAT,2
INCH
T1C0.0118
T2C0.0157
T3C0.0315
T4C0.0394
T5C0.0400
T6C0.0472
%
G90
G05
T1
X5.4272Y-4.1358
X5.4272Y-4.187
X5.4272Y-4.2382
X5.4272Y-4.2894
X5.4783Y-4.1358
X5.4783Y-4.187
X5.4783Y-4.2382
X5.4783Y-4.2894
T2
X4.8819Y-2.874
X4.8819Y-4.8819
X4.9016Y-3.6614
X4.9803Y-3.6614
X5.0Y-2.5984
X5.0394Y-4.3307
X5.0394Y-4.4094
X5.0394Y-4.4882
X5.0472Y-4.6142
X5.0591Y-3.6614
X5.1181Y-4.3307
X5.1181Y-4.4094
X5.1181Y-4.4882
X5.1339Y-4.7008
X5.1378Y-3.6614
X5.1575Y-5.0591
X5.1969Y-4.4094
X5.1969Y-4.4882
X5.2126Y-4.7795
X5.2165Y-3.6614
X5.2953Y-3.6614
X5.2953Y-3.7402
X5.2953Y-4.6555
X5.315Y-2.5984
X5.3248Y-2.998
X5.3445Y-4.0748
X5.374Y-3.3071
X5.374Y-3.6614
X5.374Y-4.8524
X5.3937Y-2.8543
X5.4035Y-4.0748
X5.4035Y-4.3504
X5.4232Y-4.0256
X5.4232Y-4.3996
X5.4294Y-3.0176
X5.4528Y-3.3071
X5.4528Y-4.0748
X5.4528Y-4.3504
X5.4724Y-3.8386
X5.4823Y-4.0256
X5.4823Y-4.3996
X5.502Y-4.0748
X5.502Y-4.3504
X5.5315Y-3.3071
X5.561Y-2.9429
X5.5906Y-2.5984
X5.7283Y-4.7736
X5.7323Y-4.1181
X5.7874Y-4.7146
X5.7874Y-4.7736
X5.8169Y-4.4488
X5.8268Y-2.5984
X5.8268Y-4.1181
X5.8563Y-4.0157
X5.876Y-4.4488
X5.9016Y-2.8209
X5.9213Y-4.1181
X5.935Y-4.4488
X5.937Y-4.9016
X5.937Y-4.9803
X5.9439Y-2.9055
X5.9449Y-4.6555
X5.9449Y-4.7146
X5.9449Y-4.7736
X5.9646Y-5.1516
X5.9724Y-2.9517
X5.9724Y-4.9409
X5.9833Y-2.9045
X5.9941Y-4.4488
X5.9941Y-4.8524
X6.0059Y-4.9016
X6.0059Y-4.9803
X6.0157Y-4.1181
X6.0531Y-4.6063
X6.0531Y-4.6752
X6.0531Y-5.0197
X6.0531Y-5.0689
X6.0531Y-5.3248
X6.0531Y-5.3839
X6.063Y-2.5984
X6.0866Y-4.6378
X6.0906Y-5.0433
X6.0906Y-5.3543
X6.1016Y-2.896
X6.1024Y-4.3307
X6.1024Y-4.3898
X6.122Y-4.6063
X6.122Y-4.6752
X6.122Y-5.0197
X6.122Y-5.0689
X6.122Y-5.3248
X6.122Y-5.3839
X6.1417Y-3.5827
X6.1417Y-4.3602
X6.1752Y-4.9075
X6.1752Y-4.9764
X6.1811Y-4.3307
X6.1811Y-4.3898
X6.2106Y-4.9409
X6.2165Y-2.8543
X6.2323Y-2.9409
X6.2441Y-4.9075
X6.2441Y-4.9764
X6.248Y-4.4685
X6.2992Y-2.5984
X6.2992Y-4.8524
X6.312Y-4.4724
X6.3307Y-4.311
X6.3465Y-4.3898
X6.3583Y-4.4724
X6.3652Y-3.5433
X6.377Y-3.378
X6.378Y-3.4843
X6.4016Y-4.4252
X6.4019Y-3.5891
X6.4173Y-3.378
X6.4331Y-3.6457
X6.4567Y-3.2362
X6.4882Y-3.4173
X6.5354Y-4.0551
X6.5748Y-2.8346
X6.5748Y-4.1339
X6.6142Y-2.6772
X6.6535Y-3.8583
X6.6535Y-4.7638
X6.6929Y-5.1673
X6.7126Y-4.7047
X6.7126Y-4.7638
X6.7618Y-5.1673
X6.7717Y-3.8976
X6.811Y-3.9764
X6.8307Y-5.1673
X6.8504Y-2.6772
X6.8504Y-2.8346
X6.8701Y-4.6457
X6.8701Y-4.7047
X6.8701Y-4.7638
X7.0039Y-4.7047
X7.0866Y-2.6772
X7.0866Y-2.8346
X7.0945Y-4.7047
X7.1457Y-4.0866
X7.1742Y-4.251
X7.1811Y-4.7047
X7.185Y-4.0039
X7.2441Y-5.5512
X7.3228Y-2.7559
X7.3228Y-4.2913
X7.3228Y-4.6063
X7.3228Y-4.8425
X7.3228Y-5.2756
X7.3228Y-5.4331
T3
X5.274Y-4.5591
X5.274Y-5.0591
X5.374Y-4.5591
X5.374Y-5.0591
X5.474Y-4.5591
X5.474Y-5.0591
X5.574Y-4.5591
X5.574Y-5.0591
X5.674Y-4.5591
X5.674Y-5.0591
X5.774Y-4.5591
X5.774Y-5.0591
X5.874Y-4.5591
X5.874Y-5.0591
X5.974Y-4.5591
X5.974Y-5.0591
X6.2008Y-4.5591
X6.2008Y-5.0591
X6.3008Y-4.5591
X6.3008Y-5.0591
X6.4008Y-4.5591
X6.4008Y-5.0591
X6.5008Y-4.5591
X6.5008Y-5.0591
X6.6008Y-4.5591
X6.6008Y-5.0591
X6.7008Y-4.5591
X6.7008Y-5.0591
X6.8008Y-4.5591
X6.8008Y-5.0591
X6.9008Y-4.5591
X6.9008Y-5.0591
T4
X4.9575Y-2.7165
X4.9803Y-5.2642
X4.9803Y-5.3642
X4.9803Y-5.4642
X4.9803Y-5.5642
X5.0575Y-2.7165
X5.1575Y-2.7165
X5.2575Y-2.7165
X5.2756Y-5.2657
X5.2756Y-5.3657
X5.2756Y-5.4657
X5.2756Y-5.5657
X5.4496Y-2.7165
X5.5496Y-2.7165
X5.5512Y-5.363
X5.5512Y-5.463
X5.5512Y-5.563
X5.6496Y-2.7165
X5.748Y-5.363
X5.748Y-5.463
X5.748Y-5.563
X5.7496Y-2.7165
X5.9449Y-5.363
X5.9449Y-5.463
X5.9449Y-5.563
X5.95Y-2.7165
X6.05Y-2.7165
X6.15Y-2.7165
X6.2402Y-5.363
X6.2402Y-5.463
X6.2402Y-5.563
X6.25Y-2.7165
X6.437Y-5.363
X6.437Y-5.463
X6.437Y-5.563
X6.4665Y-2.6248
X6.4665Y-2.7248
X6.4665Y-2.8248
X6.6339Y-5.3622
X6.6339Y-5.4622
X6.6339Y-5.5622
X6.7224Y-2.6248
X6.7224Y-2.7248
X6.7224Y-2.8248
X6.7717Y-3.3071
X6.7717Y-3.4071
X6.7717Y-3.5531
X6.7717Y-3.6531
X6.8346Y-5.3622
X6.8346Y-5.4622
X6.8346Y-5.5622
X6.9488Y-3.3071
X6.9488Y-3.4071
X6.9488Y-3.5531
X6.9488Y-3.6531
X6.9587Y-2.6248
X6.9587Y-2.7248
X6.9587Y-2.8248
X7.0276Y-5.3622
X7.0276Y-5.4622
X7.0276Y-5.5622
X7.126Y-3.3071
X7.126Y-3.4071
X7.126Y-3.5531
X7.126Y-3.6531
X7.1949Y-2.6248
X7.1949Y-2.7248
X7.1949Y-2.8248
X7.3031Y-3.3071
X7.3031Y-3.4071
X7.3031Y-3.5531
X7.3031Y-3.6531
T5
X5.1681Y-3.0602
X5.1681Y-3.1602
X5.2681Y-3.0602
X5.2681Y-3.1602
X5.3681Y-3.0602
X5.3681Y-3.1602
X5.4681Y-3.0602
X5.4681Y-3.1602
X5.5681Y-3.0602
X5.5681Y-3.1602
X5.6681Y-3.0602
X5.6681Y-3.1602
X5.7681Y-3.0602
X5.7681Y-3.1602
X5.8681Y-3.0602
X5.8681Y-3.1602
X5.9681Y-3.0602
X5.9681Y-3.1602
X6.0681Y-3.0602
X6.0681Y-3.1602
X6.1681Y-3.0602
X6.1681Y-3.1602
X6.2681Y-3.0602
X6.2681Y-3.1602
X6.3681Y-3.0602
X6.3681Y-3.1602
X6.4681Y-3.0602
X6.4681Y-3.1602
X6.5681Y-3.0602
X6.5681Y-3.1602
X6.6681Y-3.0602
X6.6681Y-3.1602
X6.7681Y-3.0602
X6.7681Y-3.1602
X6.8681Y-3.0602
X6.8681Y-3.1602
X6.9681Y-3.0602
X6.9681Y-3.1602
X7.0681Y-3.0602
X7.0681Y-3.1602
T6
X5.1417Y-3.815
X5.1417Y-3.965
T0
M30
